<svg width="158" height="40" viewBox="0 0 158 40" fill="none" xmlns="http://www.w3.org/2000/svg">
<path d="M47.6667 16.6667V16.1667H47.1667H37.8333H37.3333V16.6667V26.3333V26.8333H37.8333H47.1667H47.6667V26.3333V16.6667ZM38.4167 13.6667H38.6238L38.7702 13.5202L39.7904 12.5H45.2096L46.2298 13.5202L46.3762 13.6667H46.5833H49V13.8333H36V13.6667H38.4167ZM37.1667 26.3333V16H47.8333V26.3333C47.8333 26.4583 47.8343 26.564 47.835 26.6551C47.8363 26.8006 47.8373 26.9092 47.8336 27.0003C47.7425 27.0039 47.6339 27.003 47.4884 27.0017C47.3973 27.0009 47.2916 27 47.1667 27H37.8333C37.7084 27 37.6027 27.0009 37.5116 27.0017C37.3661 27.003 37.2575 27.0039 37.1664 27.0003C37.1627 26.9092 37.1637 26.8006 37.165 26.6551C37.1657 26.564 37.1667 26.4583 37.1667 26.3333Z" stroke="#E01F3E"/>
<path d="M40.5 26.3672L40.5 18.0002" stroke="#E01F3E"/>
<path d="M44.5 26.3672L44.5 18.0002" stroke="#E01F3E"/>
<path d="M71.3208 13.5762V23.2441H69.6948V18.3955H67.3511V17.0771H69.6948V13.5762H71.3208ZM60.2026 20.3877C62.312 19.6919 63.4399 17.9634 63.4399 16.1982V15.8467H60.686V14.5283H67.8345V15.8467H65.0952V16.2129C65.0952 17.8022 66.1646 19.4502 68.2153 20.124L67.395 21.4277C65.9155 20.9224 64.8682 19.9116 64.2896 18.6592C63.7109 20.0508 62.605 21.1641 61.0376 21.7061L60.2026 20.3877ZM62.6343 26.54V22.3945H64.2603V25.2217H71.6577V26.54H62.6343ZM77.2388 17.6045C77.2388 19.6553 78.0811 21.7207 79.9341 22.7168L79.0259 23.918C77.7954 23.2661 76.9604 22.1016 76.4844 20.71C76.0156 22.2114 75.1807 23.5005 73.9429 24.2256L72.9907 22.9951C74.8657 21.9111 75.6934 19.6992 75.7007 17.6045V17.1943H73.4448V15.876H75.7007V14.0303H77.2388V15.876H79.4507V17.1943H77.2388V17.6045ZM78.6304 19.9922V18.6445H80.3589V13.8105H81.897V26.1592H80.3589V19.9922H78.6304ZM83.0396 26.8037V13.5615H84.5923V26.8037H83.0396ZM94.4653 15.6562C94.4507 17.3115 95.5273 18.8936 97.5854 19.5527L96.7651 20.8271C95.2783 20.3511 94.231 19.355 93.6523 18.1025C93.0737 19.4575 91.9971 20.5195 90.4517 21.0322L89.6167 19.7432C91.7554 19.0474 92.8247 17.3408 92.8247 15.5244V14.25H94.4653V15.6562ZM91.3452 23.4639V22.1602H100.164V26.8037H98.5376V23.4639H91.3452ZM98.5376 21.5742V13.5615H100.164V16.8867H102.009V18.249H100.164V21.5742H98.5376ZM114.08 13.5615V26.8037H112.527V13.5615H114.08ZM102.449 23.0391C104.36 21.8745 105.203 19.4868 105.203 17.1797V16.3008H102.903V14.9824H108.909V16.3008H106.77V17.1797C106.77 19.4136 107.568 21.6548 109.465 22.7461L108.499 23.9473C107.275 23.2222 106.462 21.9624 106.001 20.4536C105.532 22.0869 104.69 23.4785 103.445 24.2549L102.449 23.0391ZM107.942 19.4941V18.1758H109.846V13.8105H111.384V26.1592H109.846V19.4941H107.942Z" fill="#E01F3E"/>
<path d="M59.7925 27.7998H115.208V29.0596H59.7925V27.7998Z" fill="#E01F3E"/>
</svg>
