<svg width="17" height="16" viewBox="0 0 17 16" fill="none" xmlns="http://www.w3.org/2000/svg">
<rect x="0.5" width="16" height="16" rx="8" fill="#E01F3E"/>
<path d="M9.26758 3.46875L9.12695 9.48633H7.91992L7.77344 3.46875H9.26758ZM7.73242 11.332C7.73242 11.1172 7.80273 10.9375 7.94336 10.793C8.08789 10.6445 8.28711 10.5703 8.54102 10.5703C8.79102 10.5703 8.98828 10.6445 9.13281 10.793C9.27734 10.9375 9.34961 11.1172 9.34961 11.332C9.34961 11.5391 9.27734 11.7168 9.13281 11.8652C8.98828 12.0098 8.79102 12.082 8.54102 12.082C8.28711 12.082 8.08789 12.0098 7.94336 11.8652C7.80273 11.7168 7.73242 11.5391 7.73242 11.332Z" fill="white"/>
</svg>
