<svg xmlns="http://www.w3.org/2000/svg" width="19" height="18" viewBox="0 0 19 18" fill="none">
  <g clip-path="url(#clip0_3135_40113)">
    <path d="M13.25 5.25H10.25V6.75H13.25C14.4875 6.75 15.5 7.7625 15.5 9C15.5 10.2375 14.4875 11.25 13.25 11.25H10.25V12.75H13.25C15.32 12.75 17 11.07 17 9C17 6.93 15.32 5.25 13.25 5.25ZM8.75 11.25H5.75C4.5125 11.25 3.5 10.2375 3.5 9C3.5 7.7625 4.5125 6.75 5.75 6.75H8.75V5.25H5.75C3.68 5.25 2 6.93 2 9C2 11.07 3.68 12.75 5.75 12.75H8.75V11.25ZM6.5 8.25H12.5V9.75H6.5V8.25Z" fill="white"/>
  </g>
  <defs>
    <clipPath id="clip0_3135_40113">
      <rect width="18" height="18" fill="white" transform="translate(0.5)"/>
    </clipPath>
  </defs>
</svg>