<svg width="18" height="18" viewBox="0 0 18 18" fill="none" xmlns="http://www.w3.org/2000/svg">
<path d="M12.0526 0H2.57895C1.71053 0 1 0.654545 1 1.45455V11.6364H2.57895V1.45455H12.0526V0Z" fill="#616161"/>
<path d="M15.6667 3.36364H12.88C12.6 2.57273 11.8667 2 11 2C10.1333 2 9.4 2.57273 9.12 3.36364H6.33333C5.6 3.36364 5 3.97727 5 4.72727V15.6364C5 16.3864 5.6 17 6.33333 17H15.6667C16.4 17 17 16.3864 17 15.6364V4.72727C17 3.97727 16.4 3.36364 15.6667 3.36364ZM11 3.36364C11.3667 3.36364 11.6667 3.67045 11.6667 4.04545C11.6667 4.42045 11.3667 4.72727 11 4.72727C10.6333 4.72727 10.3333 4.42045 10.3333 4.04545C10.3333 3.67045 10.6333 3.36364 11 3.36364ZM15.6667 15.6364H6.33333V4.72727H7.66667V6.77273H14.3333V4.72727H15.6667V15.6364Z" fill="#616161"/>
</svg>
