<svg width="22" height="22" viewBox="0 0 22 22" fill="none" xmlns="http://www.w3.org/2000/svg">
<mask id="path-1-inside-1_4345_27443" fill="white">
<path d="M3 15H19V20H5C3.89543 20 3 19.1046 3 18V15Z"/>
</mask>
<path d="M3 15H19H3ZM19 21H5C3.34315 21 2 19.6569 2 18H4C4 18.5523 4.44772 19 5 19H19V21ZM5 21C3.34315 21 2 19.6569 2 18V15H4V18C4 18.5523 4.44772 19 5 19V21ZM19 15V20V15Z" fill="black" mask="url(#path-1-inside-1_4345_27443)"/>
<path fill-rule="evenodd" clip-rule="evenodd" d="M4.5 3.5V14.5H17.5V3.5H4.5ZM4 2C3.44772 2 3 2.44772 3 3V15C3 15.5523 3.44772 16 4 16H18C18.5523 16 19 15.5523 19 15V3C19 2.44772 18.5523 2 18 2H4ZM4.5 17H5L18 17H18.5V18H18L5 18H4.5V17ZM11.3278 8.71201C10.5138 9.14134 10.0424 9.38997 10.0229 10.8495V10.9204H11.4266V10.8495C11.4466 9.91607 11.7506 9.75754 12.5197 9.35639C12.5448 9.34333 12.5703 9.33001 12.5963 9.3164C13.4702 8.8552 14 8.22252 14 7.27055C14 5.92241 12.8028 5 11.0138 5C9.37615 5 8.05505 5.82189 8 7.32968H9.48624C9.54817 6.45457 10.2706 6.06432 11.0138 6.06432C11.8394 6.06432 12.5 6.53144 12.5 7.27055C12.5 7.8914 12.0596 8.32895 11.4817 8.63051C11.4291 8.65857 11.3778 8.68563 11.3278 8.71201ZM10.7798 11.3207C10.2431 11.3207 9.79587 11.6992 9.80276 12.1604C9.79587 12.6216 10.2431 12.9941 10.7798 13C11.3096 12.9941 11.75 12.6216 11.7569 12.1604C11.75 11.6992 11.3096 11.3207 10.7798 11.3207Z" fill="black"/>
</svg>
