<svg width="22" height="22" viewBox="0 0 22 22" fill="none" xmlns="http://www.w3.org/2000/svg">
<path fill-rule="evenodd" clip-rule="evenodd" d="M11 3.75C7.49699 3.75 4.75 6.38209 4.75 9.51852L4.74971 9.55001C5.12482 9.3582 5.54977 9.25 6 9.25C7.51878 9.25 8.75 10.4812 8.75 12V14C8.75 15.5188 7.51878 16.75 6 16.75C4.48122 16.75 3.25 15.5188 3.25 14V12C3.25 11.6636 3.31039 11.3414 3.42093 11.0434C3.309 10.5518 3.25 10.0416 3.25 9.51852C3.25 5.45479 6.77103 2.25 11 2.25C15.229 2.25 18.75 5.45479 18.75 9.51852C18.75 10.041 18.6911 10.5512 18.5791 11.0434C18.6896 11.3414 18.75 11.6636 18.75 12V14C18.75 15.2865 17.8666 16.3667 16.6732 16.667C16.4904 16.9669 16.2694 17.2499 16.0104 17.5089C15.6908 17.8286 15.335 18.09 14.9563 18.2933C14.8309 18.7025 14.4502 19 14 19H12C11.4477 19 11 18.5523 11 18C11 17.4477 11.4477 17 12 17H14C14.2724 17 14.5194 17.1089 14.6997 17.2856C14.9139 17.1498 15.1165 16.9886 15.3033 16.8018C15.3409 16.7642 15.3774 16.726 15.4129 16.6872C14.1762 16.4183 13.25 15.3173 13.25 14V12C13.25 10.4812 14.4812 9.25 16 9.25C16.4501 9.25 16.8749 9.35813 17.2499 9.54981L17.25 9.51852C17.25 6.38209 14.503 3.75 11 3.75ZM6 10.75C5.30964 10.75 4.75 11.3096 4.75 12V14C4.75 14.6904 5.30964 15.25 6 15.25C6.69036 15.25 7.25 14.6904 7.25 14V12C7.25 11.3096 6.69036 10.75 6 10.75ZM14.75 12C14.75 11.3096 15.3096 10.75 16 10.75C16.6904 10.75 17.25 11.3096 17.25 12V14C17.25 14.6904 16.6904 15.25 16 15.25C15.3096 15.25 14.75 14.6904 14.75 14V12Z" fill="#1A1A1A"/>
</svg>
