<svg width="17" height="21" viewBox="0 0 17 21" fill="none" xmlns="http://www.w3.org/2000/svg">
<rect x="0.5" y="2" width="16" height="16" rx="8" fill="#38A3EB"/>
<path d="M9.26758 5.46875L9.12695 11.4863H7.91992L7.77344 5.46875H9.26758ZM7.73242 13.332C7.73242 13.1172 7.80273 12.9375 7.94336 12.793C8.08789 12.6445 8.28711 12.5703 8.54102 12.5703C8.79102 12.5703 8.98828 12.6445 9.13281 12.793C9.27734 12.9375 9.34961 13.1172 9.34961 13.332C9.34961 13.5391 9.27734 13.7168 9.13281 13.8652C8.98828 14.0098 8.79102 14.082 8.54102 14.082C8.28711 14.082 8.08789 14.0098 7.94336 13.8652C7.80273 13.7168 7.73242 13.5391 7.73242 13.332Z" fill="white"/>
</svg>
