<svg xmlns="http://www.w3.org/2000/svg" width="64" height="64" viewBox="0 0 64 64" fill="none">
  <g clip-path="url(#clip0_2890_63217)">
    <path d="M12.6064 64H51.3942C53.0008 64 54.3033 62.6975 54.3033 61.0909V28.1212C54.3033 26.5146 53.0008 25.2121 51.3942 25.2121H48.4851V16.4848C48.4851 7.3951 41.09 0 32.0003 0C22.9106 0 15.5154 7.3951 15.5154 16.4848V25.2121H12.6064C10.9998 25.2121 9.69727 26.5146 9.69727 28.1212V61.0909C9.69727 62.6975 10.9998 64 12.6064 64ZM34.9094 45.573V49.4545C34.9094 51.0611 33.6069 52.3636 32.0003 52.3636C30.3937 52.3636 29.0912 51.0611 29.0912 49.4545V45.573C27.9144 44.6877 27.1518 43.2799 27.1518 41.697C27.1518 39.0235 29.3268 36.8485 32.0003 36.8485C34.6737 36.8485 36.8488 39.0235 36.8488 41.697C36.8488 43.2799 36.0862 44.6877 34.9094 45.573ZM21.3336 16.4848C21.3336 10.6032 26.1187 5.81818 32.0003 5.81818C37.8819 5.81818 42.667 10.6032 42.667 16.4848V25.2121H21.3336V16.4848Z" fill="#E6E6E6"/>
  </g>
  <defs>
    <clipPath id="clip0_2890_63217">
      <rect width="64" height="64" fill="white"/>
    </clipPath>
  </defs>
</svg>