<svg width="110" height="32" viewBox="0 0 110 32" fill="none" xmlns="http://www.w3.org/2000/svg">
<g id="Yanolja CI">
<path id="Vector" d="M54.8155 14.1872V23.825H50.4834V14.5512C50.4834 12.6264 49.2377 11.1706 46.9956 11.1706C44.9541 11.1706 43.5008 12.6264 43.5008 14.5932V23.832H39.1756V7.40507H43.3278V9.33683C44.3728 7.72004 46.5111 7.2161 48.0267 7.2161C53.0023 7.2161 54.8155 10.4987 54.8155 14.1872ZM13.7506 7.41207L9.46001 17.7078L5.05872 7.41207H0L7.14864 22.8101L3.06568 31.958H7.94447L18.8231 7.41207H13.7506ZM74.4898 15.734C74.4898 20.4234 70.6906 24.231 66.0124 24.231C61.3343 24.231 57.5351 20.4304 57.5351 15.734C57.5351 11.0376 61.3343 7.2371 66.0124 7.2371C70.6906 7.2371 74.4898 11.0376 74.4898 15.734ZM70.2269 15.734C70.2269 13.4033 68.3377 11.5066 66.0055 11.5066C63.6734 11.5066 61.7911 13.3963 61.7911 15.734C61.7911 18.0717 63.6803 19.9615 66.0055 19.9615C68.3307 19.9615 70.2269 18.0717 70.2269 15.734ZM35.7501 16.224V23.832H31.8402V22.1382C30.5668 23.4261 28.9129 24.21 27.1413 24.21C22.4563 24.21 18.664 20.4094 18.664 15.713C18.664 11.0166 22.4632 7.2161 27.1413 7.2161C31.8194 7.2161 35.7501 10.9186 35.7501 16.224ZM31.3557 15.734C31.3557 13.4033 29.4665 11.5066 27.1413 11.5066C24.8161 11.5066 22.9269 13.3963 22.9269 15.734C22.9269 18.0717 24.8161 19.9615 27.1413 19.9615C29.4665 19.9615 31.3557 18.0717 31.3557 15.734ZM109.333 16.224V23.832H105.423V22.1382C104.15 23.4261 102.503 24.21 100.725 24.21C96.0395 24.21 92.2472 20.4094 92.2472 15.713C92.2472 11.0166 96.0464 7.2161 100.725 7.2161C105.403 7.2161 109.333 10.9186 109.333 16.224ZM104.939 15.734C104.939 13.4033 103.05 11.5066 100.718 11.5066C98.3855 11.5066 96.5032 13.3963 96.5032 15.734C96.5032 18.0717 98.3924 19.9615 100.718 19.9615C103.043 19.9615 104.939 18.0717 104.939 15.734ZM77.244 23.825H81.6523V0H77.244V23.825ZM85.1954 23.594C85.1954 26.6387 83.3685 27.6395 81.6869 27.6395V32C84.1989 32 89.5275 31.2861 89.5552 23.678V7.40507H85.1885V23.594H85.1954Z" fill="#CCCCCC"/>
</g>
</svg>
