<svg width="150" height="32" viewBox="0 0 150 32" fill="none" xmlns="http://www.w3.org/2000/svg">
<g id="Yanabada CI">
<path id="Union" fill-rule="evenodd" clip-rule="evenodd" d="M116.941 22.8018C118.109 23.5459 119.414 23.918 120.853 23.918C121.625 23.918 122.356 23.8117 123.044 23.5991C123.754 23.3652 124.38 23.057 124.922 22.6743C125.356 22.3636 125.721 22.0279 126.019 21.6669L126.112 23.5991H130.306V0H125.893V8.54445C125.636 8.2615 125.344 7.99649 125.016 7.74943C124.453 7.32422 123.806 6.99469 123.076 6.76082C122.366 6.5057 121.625 6.37813 120.853 6.37813C119.393 6.37813 118.089 6.76082 116.941 7.5262C115.793 8.29157 114.886 9.33333 114.218 10.6515C113.571 11.9696 113.247 13.4791 113.247 15.18C113.247 16.8595 113.571 18.369 114.218 19.7084C114.886 21.0266 115.793 22.0577 116.941 22.8018ZM124.015 19.5171C123.41 19.9423 122.679 20.1549 121.824 20.1549C121.01 20.1549 120.29 19.9423 119.664 19.5171C119.038 19.0919 118.548 18.5072 118.193 17.7631C117.859 17.019 117.692 16.1579 117.692 15.18C117.692 14.1807 117.859 13.309 118.193 12.5649C118.548 11.7995 119.038 11.2149 119.664 10.8109C120.29 10.3857 121.01 10.1731 121.824 10.1731C122.679 10.1731 123.41 10.3857 124.015 10.8109C124.641 11.2149 125.131 11.7995 125.486 12.5649C125.841 13.309 126.018 14.1807 126.018 15.18C126.018 16.1579 125.841 17.019 125.486 17.7631C125.131 18.5072 124.641 19.0919 124.015 19.5171ZM13.7437 7.16752L9.45524 17.5834L5.05617 7.16752H0L7.14504 22.7454L3.06414 32H7.94047L18.8137 7.16752H13.7437ZM35.7321 16.0823V23.7792H31.8241V22.0656C30.5514 23.3685 28.8983 24.1615 27.1276 24.1615C22.445 24.1615 18.6546 20.3166 18.6546 15.5654C18.6546 10.8141 22.4519 6.96925 27.1276 6.96925C31.8034 6.96925 35.7321 10.715 35.7321 16.0823ZM31.34 15.5866C31.34 13.2287 29.4517 11.3098 27.1276 11.3098C24.8036 11.3098 22.9153 13.2216 22.9153 15.5866C22.9153 17.9516 24.8036 19.8635 27.1276 19.8635C29.4517 19.8635 31.34 17.9516 31.34 15.5866ZM72.9304 16.0828V23.7796H69.0225V22.0661C67.7498 23.369 66.0967 24.162 64.326 24.162C59.6433 24.162 55.8529 20.3171 55.8529 15.5659C55.8529 10.8146 59.6502 6.96974 64.326 6.96974C69.0017 6.96974 72.9304 10.7155 72.9304 16.0828ZM68.5383 15.5871C68.5383 13.2292 66.65 11.3103 64.326 11.3103C62.0019 11.3103 60.1136 13.2221 60.1136 15.5871C60.1136 17.9521 62.0019 19.8639 64.326 19.8639C66.65 19.8639 68.5383 17.9521 68.5383 15.5871ZM111.256 23.7796V16.0828C111.256 10.7155 107.327 6.96974 102.651 6.96974C97.9753 6.96974 94.178 10.8146 94.178 15.5659C94.178 20.3171 97.9684 24.162 102.651 24.162C104.422 24.162 106.075 23.369 107.348 22.0661V23.7796H111.256ZM102.651 11.3103C104.975 11.3103 106.863 13.2292 106.863 15.5871C106.863 17.9521 104.975 19.8639 102.651 19.8639C100.327 19.8639 98.4387 17.9521 98.4387 15.5871C98.4387 13.2221 100.327 11.3103 102.651 11.3103ZM149.334 16.0828V23.7796H145.426V22.0661C144.153 23.369 142.5 24.162 140.729 24.162C136.047 24.162 132.256 20.3171 132.256 15.5659C132.256 10.8146 136.053 6.96974 140.729 6.96974C145.405 6.96974 149.334 10.7155 149.334 16.0828ZM144.942 15.5871C144.942 13.2292 143.053 11.3103 140.729 11.3103C138.405 11.3103 136.517 13.2221 136.517 15.5871C136.517 17.9521 138.405 19.8639 140.729 19.8639C143.053 19.8639 144.942 17.9521 144.942 15.5871ZM85.1245 23.918C84.3941 23.918 83.6847 23.8117 82.9961 23.5991C82.3075 23.3652 81.6815 23.0676 81.1181 22.7062C80.6423 22.401 80.2336 22.0579 79.8917 21.6769L79.8035 23.5353H75.5779V0H80.0539V8.63803C80.3812 8.24953 80.7776 7.90018 81.2433 7.58998C81.7858 7.20729 82.3805 6.90964 83.0274 6.69704C83.6742 6.48443 84.3316 6.37813 84.9993 6.37813C86.46 6.37813 87.7537 6.76082 88.8805 7.5262C90.0073 8.27031 90.8941 9.31207 91.541 10.6515C92.2088 11.9696 92.5426 13.4685 92.5426 15.1481C92.5426 16.8489 92.2192 18.3584 91.5723 19.6765C90.9255 20.9947 90.0386 22.0365 88.9118 22.8018C87.8059 23.5459 86.5434 23.918 85.1245 23.918ZM84.0603 20.0592C84.895 20.0592 85.6149 19.8573 86.22 19.4533C86.846 19.0281 87.3364 18.4541 87.6911 17.7312C88.0458 16.9871 88.2232 16.126 88.2232 15.1481C88.2232 14.1913 88.0458 13.3516 87.6911 12.6287C87.3572 11.8846 86.8773 11.3106 86.2513 10.9066C85.6253 10.4814 84.895 10.2688 84.0603 10.2688C83.2465 10.2688 82.5266 10.4814 81.9006 10.9066C81.2746 11.3106 80.7842 11.8846 80.4295 12.6287C80.0747 13.3516 79.8974 14.1913 79.8974 15.1481C79.8974 16.126 80.0747 16.9871 80.4295 17.7312C80.7842 18.4541 81.2746 19.0281 81.9006 19.4533C82.5266 19.8573 83.2465 20.0592 84.0603 20.0592ZM53.8663 14.4241V24.1546H49.5246V14.7916C49.5246 12.8483 48.2762 11.3785 46.0291 11.3785C43.9831 11.3785 42.5266 12.8483 42.5266 14.834V24.1617H38.1918V7.57672H42.3532V9.52706C43.4005 7.89471 45.5436 7.38592 47.0625 7.38592C52.0492 7.38592 53.8663 10.7001 53.8663 14.4241Z" fill="url(#paint0_linear_1280_19851)"/>
</g>
<defs>
<linearGradient id="paint0_linear_1280_19851" x1="40.4346" y1="-21.2236" x2="113.25" y2="49.8898" gradientUnits="userSpaceOnUse">
<stop stop-color="#3AC8F4"/>
<stop offset="1" stop-color="#5E9BF3"/>
</linearGradient>
</defs>
</svg>
