<svg width="22" height="23" viewBox="0 0 22 23" fill="none" xmlns="http://www.w3.org/2000/svg">
<path fill-rule="evenodd" clip-rule="evenodd" d="M8.17575 1.51697L8.17575 1.51699C8.25197 1.49482 8.33387 1.49405 8.41216 1.51641L14.2723 3.18981L20.0223 1.517C20.1513 1.47949 20.2904 1.50485 20.3978 1.58546C20.5052 1.66606 20.5684 1.79252 20.5684 1.9268L20.5684 19.366C20.5684 19.5558 20.443 19.7228 20.2608 19.7758L14.3926 21.483C14.379 21.487 14.3653 21.4902 14.3515 21.4928C14.2874 21.5047 14.2206 21.502 14.1562 21.4836M14.1537 21.4829L8.29604 19.8102L2.54602 21.483C2.41708 21.5205 2.278 21.4951 2.1706 21.4145C2.0632 21.3339 2 21.2075 2 21.0732V3.63396C2 3.44416 2.12533 3.27717 2.30757 3.22415L8.17575 1.51697M13.8466 20.5075V3.95596L8.72177 2.49253V19.044L13.8466 20.5075ZM14.7002 20.5045L19.7148 19.0457L19.7148 2.49546L14.7002 3.95431L14.7002 20.5045ZM2.85359 3.95428L7.86818 2.49543V19.0457L2.85359 20.5045V3.95428Z" fill="white"/>
</svg>
