<svg width="24" height="20" viewBox="0 0 24 20" fill={fill} xmlns="http://www.w3.org/2000/svg">
  <path
    fill-rule="evenodd"
    clip-rule="evenodd"
    d="M12.6097 1.64016C12.4404 1.48609 12.1678 1.48609 11.9984 1.64016L1.30567 11.3662L0.694321 10.7973L11.3871 1.07126C11.8952 0.609059 12.713 0.609061 13.2211 1.07126L23.9138 10.7973L23.3025 11.3662L12.6097 1.64016Z"
    fill="current"
  />
  <path
    fill-rule="evenodd"
    clip-rule="evenodd"
    d="M4.57074 7.97656C4.81086 7.97656 5.00552 8.15565 5.00552 8.37656V17.5998C5.00552 18.2626 5.58948 18.7998 6.30983 18.7998H18.3004C19.0207 18.7998 19.6047 18.2626 19.6047 17.5998V8.37656C19.6047 8.15565 19.7994 7.97656 20.0395 7.97656C20.2796 7.97656 20.4743 8.15565 20.4743 8.37656V17.5998C20.4743 18.7044 19.501 19.5998 18.3004 19.5998H6.30983C5.10924 19.5998 4.13597 18.7044 4.13597 17.5998V8.37656C4.13597 8.15565 4.33063 7.97656 4.57074 7.97656Z"
    fill="current"
  />
  <path
    fill-rule="evenodd"
    clip-rule="evenodd"
    d="M15.2796 19.5996C15.0394 19.5996 14.8448 19.4205 14.8448 19.1996L14.8448 14.1645C14.8448 13.5797 14.3295 13.1057 13.6939 13.1057L10.9157 13.1057C10.2801 13.1057 9.76481 13.5797 9.76481 14.1645L9.76481 19.1996C9.76481 19.4205 9.57016 19.5996 9.33004 19.5996C9.08992 19.5996 8.89527 19.4205 8.89527 19.1996L8.89527 14.1645C8.89527 13.1379 9.79984 12.3057 10.9157 12.3057L13.6939 12.3057C14.8098 12.3057 15.7143 13.1379 15.7143 14.1645L15.7143 19.1996C15.7143 19.4205 15.5197 19.5996 15.2796 19.5996Z"
    fill="current"
  />
</svg>