<svg width="24" height="21" viewBox="0 0 24 21" fill="current" xmlns="http://www.w3.org/2000/svg">
<path fill-rule="evenodd" clip-rule="evenodd" d="M1.11426 3.10946C1.11426 1.90884 2.05148 0.935547 3.20761 0.935547H16.605C17.7612 0.935547 18.6984 1.90884 18.6984 3.10946V11.8051C18.6984 13.0057 17.7612 13.979 16.605 13.979H10.5981L6.90345 17.6624C6.10511 18.4583 4.77762 17.8707 4.77762 16.7214V13.979H3.20761C2.05148 13.979 1.11426 13.0057 1.11426 11.8051V3.10946ZM3.20761 1.80511C2.51393 1.80511 1.9516 2.38909 1.9516 3.10946V11.8051C1.9516 12.5255 2.51393 13.1095 3.20761 13.1095H5.19629C5.42751 13.1095 5.61495 13.3041 5.61495 13.5442V16.7214C5.61495 17.1045 6.05745 17.3004 6.32357 17.0351L10.1397 13.2306C10.2177 13.1529 10.3216 13.1095 10.4297 13.1095H16.605C17.2987 13.1095 17.861 12.5255 17.861 11.8051V3.10946C17.861 2.38909 17.2987 1.80511 16.605 1.80511H3.20761Z" fill="current"/>
<ellipse cx="5.929" cy="7.89164" rx="1.04667" ry="1.08696" fill="current"/>
<ellipse cx="9.69706" cy="7.89164" rx="1.04667" ry="1.08696" fill="current"/>
<ellipse cx="13.4651" cy="7.89164" rx="1.04667" ry="1.08696" fill="current"/>
<path fill-rule="evenodd" clip-rule="evenodd" d="M20.5824 4.41253C21.2761 4.41253 21.8384 4.99651 21.8384 5.71688V14.6299C21.8384 15.3503 21.2761 15.9343 20.5824 15.9343H18.9194C18.6882 15.9343 18.5007 16.1289 18.5007 16.3691V18.682C18.5007 19.0796 18.0293 19.2686 17.772 18.9741L15.2404 16.0769C15.1611 15.9861 15.0485 15.9343 14.9304 15.9343H7.81301V16.8038H14.745L17.1519 19.5585C17.9237 20.4418 19.3381 19.8748 19.3381 18.682V16.8038H20.5824C21.7386 16.8038 22.6758 15.8305 22.6758 14.6299V5.71688C22.6758 4.51626 21.7386 3.54297 20.5824 3.54297H17.8611V4.41253H20.5824Z" fill="current"/>
</svg>