<svg width="24" height="23" viewBox="0 0 24 23" fill="current" xmlns="http://www.w3.org/2000/svg">
<path fill-rule="evenodd" clip-rule="evenodd" d="M12 19.6296C16.8024 19.6296 20.6955 15.7365 20.6955 10.9341C20.6955 6.13177 16.8024 2.23868 12 2.23868C7.19769 2.23868 3.3046 6.13177 3.3046 10.9341C3.3046 15.7365 7.19769 19.6296 12 19.6296ZM12 20.4991C17.2826 20.4991 21.565 16.2167 21.565 10.9341C21.565 5.65153 17.2826 1.36914 12 1.36914C6.71745 1.36914 2.43506 5.65153 2.43506 10.9341C2.43506 16.2167 6.71745 20.4991 12 20.4991Z" fill="current"/>
<path fill-rule="evenodd" clip-rule="evenodd" d="M12.4347 10.5003V4.63086H11.5651V10.5003H5.91309V11.3698H11.5651V17.2393H12.4347V11.3698H18.5215V10.5003H12.4347Z" fill="current"/>
</svg>
