<svg width="112" height="24" viewBox="0 0 112 24" fill="current" xmlns="http://www.w3.org/2000/svg">
<path fill-rule="evenodd" clip-rule="evenodd" d="M87.7057 17.1014C88.5821 17.6595 89.5602 17.9385 90.6401 17.9385C91.2191 17.9385 91.7669 17.8588 92.2833 17.6993C92.8154 17.5239 93.2849 17.2927 93.6918 17.0057C94.0168 16.7727 94.2908 16.5209 94.5139 16.2502L94.5839 17.6993H97.7295V0H94.4195V6.40834C94.2269 6.19613 94.0078 5.99737 93.7622 5.81207C93.3397 5.49317 92.8545 5.24602 92.3068 5.07062C91.7747 4.87927 91.2191 4.7836 90.6401 4.7836C89.5445 4.7836 88.5664 5.07062 87.7057 5.64465C86.8449 6.21868 86.1641 7 85.6633 7.98861C85.1782 8.97722 84.9356 10.1093 84.9356 11.385C84.9356 12.6446 85.1782 13.7768 85.6633 14.7813C86.1641 15.7699 86.8449 16.5433 87.7057 17.1014ZM93.011 14.6378C92.5572 14.9567 92.0094 15.1162 91.3678 15.1162C90.7574 15.1162 90.2175 14.9567 89.748 14.6378C89.2785 14.3189 88.9107 13.8804 88.6447 13.3223C88.3943 12.7642 88.2691 12.1185 88.2691 11.385C88.2691 10.6355 88.3943 9.98178 88.6447 9.42369C88.9107 8.84966 89.2785 8.41116 89.748 8.1082C90.2175 7.7893 90.7574 7.62984 91.3678 7.62984C92.0094 7.62984 92.5572 7.7893 93.011 8.1082C93.4805 8.41116 93.8483 8.84966 94.1144 9.42369C94.3804 9.98178 94.5135 10.6355 94.5135 11.385C94.5135 12.1185 94.3804 12.7642 94.1144 13.3223C93.8483 13.8804 93.4805 14.3189 93.011 14.6378ZM10.3077 5.37564L7.09143 13.1876L3.79213 5.37564H0L5.35878 17.059L2.2981 24H5.95535L14.1102 5.37564H10.3077ZM26.7991 12.0617V17.8344H23.8681V16.5492C22.9136 17.5264 21.6737 18.1211 20.3457 18.1211C16.8337 18.1211 13.9909 15.2375 13.9909 11.674C13.9909 8.11061 16.8389 5.22694 20.3457 5.22694C23.8525 5.22694 26.7991 8.03626 26.7991 12.0617ZM23.505 11.69C23.505 9.92154 22.0888 8.48236 20.3457 8.48236C18.6027 8.48236 17.1865 9.91623 17.1865 11.69C17.1865 13.4637 18.6027 14.8976 20.3457 14.8976C22.0888 14.8976 23.505 13.4637 23.505 11.69ZM54.6978 12.0621V17.8347H51.7668V16.5496C50.8123 17.5267 49.5725 18.1215 48.2445 18.1215C44.7325 18.1215 41.8897 15.2378 41.8897 11.6744C41.8897 8.11098 44.7377 5.22731 48.2445 5.22731C51.7513 5.22731 54.6978 8.03663 54.6978 12.0621ZM51.4037 11.6903C51.4037 9.9219 49.9875 8.48272 48.2445 8.48272C46.5014 8.48272 45.0852 9.91659 45.0852 11.6903C45.0852 13.4641 46.5014 14.898 48.2445 14.898C49.9875 14.898 51.4037 13.4641 51.4037 11.6903ZM83.4416 17.8347V12.0621C83.4416 8.03663 80.4951 5.22731 76.9883 5.22731C73.4815 5.22731 70.6335 8.11098 70.6335 11.6744C70.6335 15.2378 73.4763 18.1215 76.9883 18.1215C78.3163 18.1215 79.5561 17.5267 80.5107 16.5496V17.8347H83.4416ZM76.9883 8.48272C78.7313 8.48272 80.1475 9.9219 80.1475 11.6903C80.1475 13.4641 78.7313 14.898 76.9883 14.898C75.2453 14.898 73.829 13.4641 73.829 11.6903C73.829 9.91659 75.2453 8.48272 76.9883 8.48272ZM112 12.0621V17.8347H109.069V16.5496C108.115 17.5267 106.875 18.1215 105.547 18.1215C102.035 18.1215 99.1921 15.2378 99.1921 11.6744C99.1921 8.11098 102.04 5.22731 105.547 5.22731C109.054 5.22731 112 8.03663 112 12.0621ZM108.706 11.6903C108.706 9.9219 107.29 8.48272 105.547 8.48272C103.804 8.48272 102.388 9.91659 102.388 11.6903C102.388 13.4641 103.804 14.898 105.547 14.898C107.29 14.898 108.706 13.4641 108.706 11.6903ZM63.8434 17.9385C63.2956 17.9385 62.7635 17.8588 62.2471 17.6993C61.7306 17.5239 61.2611 17.3007 60.8386 17.0296C60.4818 16.8007 60.1752 16.5434 59.9188 16.2577L59.8526 17.6515H56.6835V0H60.0404V6.47852C60.2859 6.18715 60.5832 5.92513 60.9324 5.69248C61.3394 5.40547 61.7854 5.18223 62.2705 5.02278C62.7557 4.86333 63.2487 4.7836 63.7495 4.7836C64.845 4.7836 65.8153 5.07062 66.6604 5.64465C67.5055 6.20273 68.1706 6.98406 68.6558 7.98861C69.1566 8.97722 69.407 10.1014 69.407 11.3611C69.407 12.6367 69.1644 13.7688 68.6792 14.7574C68.1941 15.746 67.529 16.5273 66.6839 17.1014C65.8544 17.6595 64.9076 17.9385 63.8434 17.9385ZM63.0452 15.0444C63.6712 15.0444 64.2111 14.8929 64.665 14.59C65.1345 14.2711 65.5023 13.8406 65.7683 13.2984C66.0344 12.7403 66.1674 12.0945 66.1674 11.3611C66.1674 10.6435 66.0344 10.0137 65.7683 9.47153C65.5179 8.91344 65.158 8.48292 64.6885 8.17996C64.219 7.86105 63.6712 7.7016 63.0452 7.7016C62.4349 7.7016 61.8949 7.86105 61.4254 8.17996C60.9559 8.48292 60.5882 8.91344 60.3221 9.47153C60.056 10.0137 59.923 10.6435 59.923 11.3611C59.923 12.0945 60.056 12.7403 60.3221 13.2984C60.5882 13.8406 60.9559 14.2711 61.4254 14.59C61.8949 14.8929 62.4349 15.0444 63.0452 15.0444ZM40.3997 10.8181V18.116H37.1434V11.0937C37.1434 9.63622 36.2071 8.53385 34.5218 8.53385C32.9873 8.53385 31.8949 9.63622 31.8949 11.1255V18.1213H28.6439V5.68254H31.7649V7.14529C32.5503 5.92103 34.1577 5.53944 35.2968 5.53944C39.0369 5.53944 40.3997 8.02507 40.3997 10.8181Z" fill="current"/>
</svg>
<svg xmlns="http://www.w3.org/2000/svg" width="112" height="24" viewBox="0 0 112 24" fill="current">
  <path fill-rule="evenodd" clip-rule="evenodd" d="M87.7057 17.1014C88.5821 17.6595 89.5602 17.9385 90.6401 17.9385C91.2191 17.9385 91.7669 17.8588 92.2833 17.6993C92.8154 17.5239 93.2849 17.2927 93.6918 17.0057C94.0168 16.7727 94.2908 16.5209 94.5139 16.2502L94.5839 17.6993H97.7295V0H94.4195V6.40834C94.2269 6.19613 94.0078 5.99737 93.7622 5.81207C93.3397 5.49317 92.8545 5.24602 92.3068 5.07062C91.7747 4.87927 91.2191 4.7836 90.6401 4.7836C89.5445 4.7836 88.5664 5.07062 87.7057 5.64465C86.8449 6.21868 86.1641 7 85.6633 7.98861C85.1782 8.97722 84.9356 10.1093 84.9356 11.385C84.9356 12.6446 85.1782 13.7768 85.6633 14.7813C86.1641 15.7699 86.8449 16.5433 87.7057 17.1014ZM93.011 14.6378C92.5572 14.9567 92.0094 15.1162 91.3678 15.1162C90.7574 15.1162 90.2175 14.9567 89.748 14.6378C89.2785 14.3189 88.9107 13.8804 88.6447 13.3223C88.3943 12.7642 88.2691 12.1185 88.2691 11.385C88.2691 10.6355 88.3943 9.98178 88.6447 9.42369C88.9107 8.84966 89.2785 8.41116 89.748 8.1082C90.2175 7.7893 90.7574 7.62984 91.3678 7.62984C92.0094 7.62984 92.5572 7.7893 93.011 8.1082C93.4805 8.41116 93.8483 8.84966 94.1144 9.42369C94.3804 9.98178 94.5135 10.6355 94.5135 11.385C94.5135 12.1185 94.3804 12.7642 94.1144 13.3223C93.8483 13.8804 93.4805 14.3189 93.011 14.6378ZM10.3077 5.37564L7.09143 13.1876L3.79213 5.37564H0L5.35878 17.059L2.2981 24H5.95535L14.1102 5.37564H10.3077ZM26.7991 12.0617V17.8344H23.8681V16.5492C22.9136 17.5264 21.6737 18.1211 20.3457 18.1211C16.8337 18.1211 13.9909 15.2375 13.9909 11.674C13.9909 8.11061 16.8389 5.22694 20.3457 5.22694C23.8525 5.22694 26.7991 8.03626 26.7991 12.0617ZM23.505 11.69C23.505 9.92154 22.0888 8.48236 20.3457 8.48236C18.6027 8.48236 17.1865 9.91623 17.1865 11.69C17.1865 13.4637 18.6027 14.8976 20.3457 14.8976C22.0888 14.8976 23.505 13.4637 23.505 11.69ZM54.6978 12.0621V17.8347H51.7668V16.5496C50.8123 17.5267 49.5725 18.1215 48.2445 18.1215C44.7325 18.1215 41.8897 15.2378 41.8897 11.6744C41.8897 8.11098 44.7377 5.22731 48.2445 5.22731C51.7513 5.22731 54.6978 8.03663 54.6978 12.0621ZM51.4037 11.6903C51.4037 9.9219 49.9875 8.48272 48.2445 8.48272C46.5014 8.48272 45.0852 9.91659 45.0852 11.6903C45.0852 13.4641 46.5014 14.898 48.2445 14.898C49.9875 14.898 51.4037 13.4641 51.4037 11.6903ZM83.4416 17.8347V12.0621C83.4416 8.03663 80.4951 5.22731 76.9883 5.22731C73.4815 5.22731 70.6335 8.11098 70.6335 11.6744C70.6335 15.2378 73.4763 18.1215 76.9883 18.1215C78.3163 18.1215 79.5561 17.5267 80.5107 16.5496V17.8347H83.4416ZM76.9883 8.48272C78.7313 8.48272 80.1475 9.9219 80.1475 11.6903C80.1475 13.4641 78.7313 14.898 76.9883 14.898C75.2453 14.898 73.829 13.4641 73.829 11.6903C73.829 9.91659 75.2453 8.48272 76.9883 8.48272ZM112 12.0621V17.8347H109.069V16.5496C108.115 17.5267 106.875 18.1215 105.547 18.1215C102.035 18.1215 99.1921 15.2378 99.1921 11.6744C99.1921 8.11098 102.04 5.22731 105.547 5.22731C109.054 5.22731 112 8.03663 112 12.0621ZM108.706 11.6903C108.706 9.9219 107.29 8.48272 105.547 8.48272C103.804 8.48272 102.388 9.91659 102.388 11.6903C102.388 13.4641 103.804 14.898 105.547 14.898C107.29 14.898 108.706 13.4641 108.706 11.6903ZM63.8434 17.9385C63.2956 17.9385 62.7635 17.8588 62.2471 17.6993C61.7306 17.5239 61.2611 17.3007 60.8386 17.0296C60.4818 16.8007 60.1752 16.5434 59.9188 16.2577L59.8526 17.6515H56.6835V0H60.0404V6.47852C60.2859 6.18715 60.5832 5.92513 60.9324 5.69248C61.3394 5.40547 61.7854 5.18223 62.2705 5.02278C62.7557 4.86333 63.2487 4.7836 63.7495 4.7836C64.845 4.7836 65.8153 5.07062 66.6604 5.64465C67.5055 6.20273 68.1706 6.98406 68.6558 7.98861C69.1566 8.97722 69.407 10.1014 69.407 11.3611C69.407 12.6367 69.1644 13.7688 68.6792 14.7574C68.1941 15.746 67.529 16.5273 66.6839 17.1014C65.8544 17.6595 64.9076 17.9385 63.8434 17.9385ZM63.0452 15.0444C63.6712 15.0444 64.2111 14.8929 64.665 14.59C65.1345 14.2711 65.5023 13.8406 65.7683 13.2984C66.0344 12.7403 66.1674 12.0945 66.1674 11.3611C66.1674 10.6435 66.0344 10.0137 65.7683 9.47153C65.5179 8.91344 65.158 8.48292 64.6885 8.17996C64.219 7.86105 63.6712 7.7016 63.0452 7.7016C62.4349 7.7016 61.8949 7.86105 61.4254 8.17996C60.9559 8.48292 60.5882 8.91344 60.3221 9.47153C60.056 10.0137 59.923 10.6435 59.923 11.3611C59.923 12.0945 60.056 12.7403 60.3221 13.2984C60.5882 13.8406 60.9559 14.2711 61.4254 14.59C61.8949 14.8929 62.4349 15.0444 63.0452 15.0444ZM40.3997 10.8181V18.116H37.1434V11.0937C37.1434 9.63622 36.2071 8.53385 34.5218 8.53385C32.9873 8.53385 31.8949 9.63622 31.8949 11.1255V18.1213H28.6439V5.68254H31.7649V7.14529C32.5503 5.92103 34.1577 5.53944 35.2968 5.53944C39.0369 5.53944 40.3997 8.02507 40.3997 10.8181Z" fill="current"/>
  <defs>
    <linearGradient id="paint0_linear_2987_31414" x1="30.326" y1="-15.9177" x2="84.9374" y2="37.4173" gradientUnits="userSpaceOnUse">
      <stop stop-color="#3AC8F4"/>
      <stop offset="1" stop-color="#5E9BF3"/>
    </linearGradient>
  </defs>
</svg>