<svg width="24" height="23" viewBox="0 0 24 23" fill="none" xmlns="http://www.w3.org/2000/svg">
<path fill-rule="evenodd" clip-rule="evenodd" d="M9.39141 2.23868H4.17415C3.69391 2.23868 3.3046 2.62799 3.3046 3.10823V8.3255C3.3046 8.80573 3.69391 9.19504 4.17415 9.19504H9.39141C9.87165 9.19504 10.261 8.80573 10.261 8.3255V3.10823C10.261 2.62799 9.87165 2.23868 9.39141 2.23868ZM4.17415 1.36914C3.21368 1.36914 2.43506 2.14776 2.43506 3.10823V8.3255C2.43506 9.28597 3.21368 10.0646 4.17415 10.0646H9.39141C10.3519 10.0646 11.1305 9.28597 11.1305 8.3255V3.10823C11.1305 2.14776 10.3519 1.36914 9.39141 1.36914H4.17415Z" fill="#3C3C3C"/>
<path fill-rule="evenodd" clip-rule="evenodd" d="M9.39141 12.6723H4.17415C3.69391 12.6723 3.3046 13.0616 3.3046 13.5418V18.7591C3.3046 19.2393 3.69391 19.6286 4.17415 19.6286H9.39141C9.87165 19.6286 10.261 19.2393 10.261 18.7591V13.5418C10.261 13.0616 9.87165 12.6723 9.39141 12.6723ZM4.17415 11.8027C3.21368 11.8027 2.43506 12.5814 2.43506 13.5418V18.7591C2.43506 19.7196 3.21368 20.4982 4.17415 20.4982H9.39141C10.3519 20.4982 11.1305 19.7196 11.1305 18.7591V13.5418C11.1305 12.5814 10.3519 11.8027 9.39141 11.8027H4.17415Z" fill="#3C3C3C"/>
<path fill-rule="evenodd" clip-rule="evenodd" d="M19.826 2.23868H14.6087C14.1285 2.23868 13.7392 2.62799 13.7392 3.10823V8.3255C13.7392 8.80573 14.1285 9.19504 14.6087 9.19504H19.826C20.3062 9.19504 20.6955 8.80573 20.6955 8.3255V3.10823C20.6955 2.62799 20.3062 2.23868 19.826 2.23868ZM14.6087 1.36914C13.6482 1.36914 12.8696 2.14776 12.8696 3.10823V8.3255C12.8696 9.28597 13.6482 10.0646 14.6087 10.0646H19.826C20.7865 10.0646 21.5651 9.28597 21.5651 8.3255V3.10823C21.5651 2.14776 20.7865 1.36914 19.826 1.36914H14.6087Z" fill="#3C3C3C"/>
<path fill-rule="evenodd" clip-rule="evenodd" d="M19.826 12.6723H14.6087C14.1285 12.6723 13.7392 13.0616 13.7392 13.5418V18.7591C13.7392 19.2393 14.1285 19.6286 14.6087 19.6286H19.826C20.3062 19.6286 20.6955 19.2393 20.6955 18.7591V13.5418C20.6955 13.0616 20.3062 12.6723 19.826 12.6723ZM14.6087 11.8027C13.6482 11.8027 12.8696 12.5814 12.8696 13.5418V18.7591C12.8696 19.7196 13.6482 20.4982 14.6087 20.4982H19.826C20.7865 20.4982 21.5651 19.7196 21.5651 18.7591V13.5418C21.5651 12.5814 20.7865 11.8027 19.826 11.8027H14.6087Z" fill="#3C3C3C"/>
</svg>
