<svg width="20" height="21" viewBox="0 0 20 21" fill="none" xmlns="http://www.w3.org/2000/svg">
<g id="Group 1000003730">
<path id="Ellipse 5 (Stroke)" fill-rule="evenodd" clip-rule="evenodd" d="M10.0001 8.3259C11.921 8.3259 13.4782 6.76867 13.4782 4.84772C13.4782 2.92678 11.921 1.36954 10.0001 1.36954C8.07912 1.36954 6.52189 2.92678 6.52189 4.84772C6.52189 6.76867 8.07912 8.3259 10.0001 8.3259ZM10.0001 9.19544C12.4012 9.19544 14.3478 7.2489 14.3478 4.84772C14.3478 2.44654 12.4012 0.5 10.0001 0.5C7.59889 0.5 5.65234 2.44654 5.65234 4.84772C5.65234 7.2489 7.59889 9.19544 10.0001 9.19544Z" fill="#3C3C3C"/>
<path id="Ellipse 6 (Stroke)" fill-rule="evenodd" clip-rule="evenodd" d="M17.8278 19.6294C18.3493 19.6294 18.6252 19.2318 18.574 18.8976C17.8726 14.3206 14.2506 10.934 9.99982 10.934C5.74902 10.934 2.12704 14.3206 1.42567 18.8976C1.37446 19.2318 1.65039 19.6294 2.17182 19.6294H17.8278ZM17.8278 20.499C18.7883 20.499 19.579 19.7153 19.4335 18.7659C18.6768 13.8279 14.7412 10.0645 9.99982 10.0645C5.25846 10.0645 1.32284 13.8279 0.566162 18.7659C0.420681 19.7153 1.21135 20.499 2.17182 20.499H17.8278Z" fill="#3C3C3C"/>
</g>
</svg>
