<svg width="360" height="88" viewBox="0 0 360 88" fill="none" xmlns="http://www.w3.org/2000/svg">
<mask id="path-1-inside-1_2159_51983" fill="white">
<path d="M0 30C0 13.4315 13.4315 0 30 0H330C346.569 0 360 13.4315 360 30V88H0V30Z"/>
</mask>
<path d="M0 30C0 13.4315 13.4315 0 30 0H330C346.569 0 360 13.4315 360 30V88H0V30Z" fill="url(#paint0_linear_2159_51983)"/>
<path d="M-1 30C-1 12.8792 12.8792 -1 30 -1H330C347.121 -1 361 12.8792 361 30H359C359 13.9837 346.016 1 330 1H30C13.9837 1 1 13.9837 1 30H-1ZM360 88H0H360ZM-1 88V30C-1 12.8792 12.8792 -1 30 -1V1C13.9837 1 1 13.9837 1 30V88H-1ZM330 -1C347.121 -1 361 12.8792 361 30V88H359V30C359 13.9837 346.016 1 330 1V-1Z" fill="white" mask="url(#path-1-inside-1_2159_51983)"/>
<g opacity="0.5">
<path d="M119.286 39.0444V57.4164H110.965V39.7382C110.965 36.0691 108.572 33.294 104.266 33.294C100.345 33.294 97.5534 36.0691 97.5534 39.8182V57.4298H89.2459V26.1159H97.2211V29.7983C99.2282 26.7163 103.335 25.7557 106.246 25.7557C115.803 25.7557 119.286 32.0131 119.286 39.0444ZM40.4112 26.1293L32.1701 45.7555L23.7164 26.1293H14L27.7306 55.4818L19.8883 72.9199H29.2592L50.1542 26.1293H40.4112ZM157.075 41.993C157.075 50.9322 149.778 58.1903 140.792 58.1903C131.807 58.1903 124.51 50.9455 124.51 41.993C124.51 33.0405 131.807 25.7957 140.792 25.7957C149.778 25.7957 157.075 33.0405 157.075 41.993ZM148.887 41.993C148.887 37.5501 145.258 33.9344 140.779 33.9344C136.3 33.9344 132.684 37.5367 132.684 41.993C132.684 46.4493 136.313 50.0516 140.779 50.0516C145.245 50.0516 148.887 46.4493 148.887 41.993ZM82.6664 42.9269V57.4298H75.1564V54.201C72.7107 56.6559 69.5339 58.1503 66.1311 58.1503C57.1325 58.1503 49.8485 50.9055 49.8485 41.953C49.8485 33.0004 57.1458 25.7557 66.1311 25.7557C75.1165 25.7557 82.6664 32.8136 82.6664 42.9269ZM74.226 41.993C74.226 37.5501 70.5973 33.9344 66.1311 33.9344C61.665 33.9344 58.0363 37.5367 58.0363 41.993C58.0363 46.4493 61.665 50.0516 66.1311 50.0516C70.5973 50.0516 74.226 46.4493 74.226 41.993ZM224 42.9269V57.4298H216.49V54.201C214.044 56.6559 210.881 58.1503 207.465 58.1503C198.466 58.1503 191.182 50.9055 191.182 41.953C191.182 33.0004 198.479 25.7557 207.465 25.7557C216.45 25.7557 224 32.8136 224 42.9269ZM215.56 41.993C215.56 37.5501 211.931 33.9344 207.451 33.9344C202.972 33.9344 199.357 37.5367 199.357 41.993C199.357 46.4493 202.985 50.0516 207.451 50.0516C211.918 50.0516 215.56 46.4493 215.56 41.993ZM162.365 57.4164H170.832V12H162.365V57.4164ZM177.638 56.9762C177.638 62.78 174.128 64.6879 170.899 64.6879V73C175.724 73 185.958 71.6391 186.012 57.1363V26.1159H177.624V56.9762H177.638Z" fill="url(#paint1_linear_2159_51983)"/>
</g>
<path d="M234.469 28.9531C236.516 28.9609 237.969 30.8438 237.984 33.7969C237.969 36.7578 236.516 38.6328 234.469 38.625C232.406 38.6328 230.961 36.7578 230.969 33.7969C230.961 30.8438 232.406 28.9609 234.469 28.9531ZM232.125 33.7969C232.133 36.0547 233.094 37.5391 234.469 37.5312C235.859 37.5391 236.797 36.0547 236.797 33.7969C236.797 31.5391 235.859 30.0547 234.469 30.0469C233.094 30.0547 232.133 31.5391 232.125 33.7969ZM240.281 41.7656V27.875H241.5V31.375H243.75V32.4219H241.5V35.5156H243.75V36.5469H241.5V41.7656H240.281ZM255.781 31.1875V32.2031H251.516V33.7188H257.281V34.75H244.562V33.7188H250.312V32.2031H246.297V28.1094H247.5V31.1875H255.781ZM246.156 36.8594V35.8906H255.641V39.0781H247.422V40.5938H256.141V41.5781H246.188V38.1719H254.438V36.8594H246.156ZM263.109 32.1406C263.094 34.3672 264.703 36.8203 266.719 37.7812L266.016 38.75C264.453 37.9844 263.133 36.3438 262.508 34.4609C261.867 36.5 260.477 38.2969 258.922 39.0938L258.172 38.125C260.172 37.1484 261.891 34.5078 261.906 32.1406V30.3281H258.672V29.3125H266.234V30.3281H263.109V32.1406ZM267.938 41.7656V27.875H269.156V33.5H271.484V34.5469H269.156V41.7656H267.938ZM287 27.875V33.3438H289.328V34.4062H287V41.7656H285.781V27.875H287ZM276.828 38.4375V29.0625H278.047V32.7344H282.109V29.0625H283.328V38.4375H276.828ZM278.047 37.4062H282.109V33.7188H278.047V37.4062ZM302.797 39.0156V40.0469H290.078V39.0156H295.797V36.3906H291.672V32.1094H299.984V29.9219H291.641V28.9062H301.188V33.1094H292.891V35.375H301.516V36.3906H297V39.0156H302.797ZM314.656 27.875V33.5312H316.906V34.5625H314.656V41.7656H313.438V27.875H314.656ZM304 38.1562C307.586 36.375 309.539 33.6953 309.82 30.4062H304.641V29.375H311.062C311.055 33.3047 309.211 36.8906 304.688 39.125L304 38.1562ZM329.219 27.875V41.7656H327.984V27.875H329.219ZM317.906 38.1562C321.664 36.375 323.586 33.7109 323.859 30.3906H318.547V29.3906H325.109C325.094 33.3828 323.234 36.9219 318.578 39.1562L317.906 38.1562Z" fill="white"/>
<g clip-path="url(#clip0_2159_51983)">
<path d="M339.5 39.8154L344.5 35L339.5 30.1845" stroke="white" stroke-width="1.5" stroke-linecap="round" stroke-linejoin="round"/>
</g>
<path d="M97.9766 54.8438V55.9531C97.9844 57 97.9844 58.2031 97.6875 59.7344H99.5234V61.3281H93.9922V63.375H97.9922V68.4375H95.9922V64.9375H87.8203V63.375H91.9922V61.3281H86.5078V59.7344H95.6719C95.9375 58.3984 95.9766 57.3594 95.9922 56.4219H88.1016V54.8438H97.9766ZM112.602 54.2188V68.4375H110.68V61.3281H109.352V67.75H107.477V54.4531H109.352V59.7188H110.68V54.2188H112.602ZM100.914 64.9688V55.7969H102.914V63.2266C104.055 63.1953 105.312 63.0938 106.68 62.8281L106.883 64.5469C104.977 64.875 103.352 64.9766 101.883 64.9688H100.914ZM123.555 61.9062V64.0469C124.727 63.9766 125.898 63.8672 127.008 63.7031L127.164 65.1562C124.008 65.7578 120.633 65.7891 118.148 65.7969L117.914 64.1875C118.984 64.1875 120.242 64.1797 121.57 64.1406V61.9062H123.555ZM118.195 60.8438C120.344 60.2734 121.391 58.9453 121.523 57.5H118.648V55.8906H121.57V54.3438H123.555V55.8906H126.492V57.5H123.586C123.719 58.875 124.781 60.1641 126.93 60.6875L126.023 62.2344C124.359 61.8125 123.211 60.8906 122.562 59.7109C121.945 60.9531 120.812 61.9141 119.133 62.3438L118.195 60.8438ZM127.82 68.4688V54.2188H129.805V68.4688H127.82ZM142.898 54.2188V59.5H144.992V61.125H142.898V68.4688H140.898V54.2188H142.898ZM132.242 65.0156V55.5312H138.914V57.1406H134.227V63.375C136.289 63.3594 137.992 63.25 139.883 62.9219L140.102 64.5938C137.891 64.9688 135.953 65.0234 133.445 65.0156H132.242ZM156.633 55.2188C156.625 56.9766 159.156 58.5391 161.602 58.8906L161.117 59.8438C158.992 59.5078 156.883 58.3984 156 56.8281C155.117 58.4062 153 59.5078 150.867 59.8438L150.398 58.8906C152.859 58.5391 155.367 57.0078 155.367 55.2188V54.5625H156.633V55.2188ZM149.664 61.9688V60.9531H162.32V61.9688H156.586V63.75H160.758V68.2656H159.523V64.75H151.07V63.75H155.383V61.9688H149.664ZM176.211 65.4375V66.4531H163.492V65.4375H169.18V62.0312H170.383V65.4375H176.211ZM163.992 61.1719C166.422 60.7578 169.125 58.7266 169.133 56.3906V55.3281H170.414V56.3906C170.422 58.7109 173.164 60.7578 175.586 61.1719L175.039 62.1875C172.922 61.75 170.688 60.3203 169.789 58.3203C168.875 60.3125 166.664 61.75 164.539 62.1875L163.992 61.1719ZM194.055 65.4688V66.4844H181.336V65.4688H187.055V62.4688H182.836V55.3594H184.07V57.875H191.289V55.3594H192.492V62.4688H188.258V65.4688H194.055ZM184.07 61.4688H191.289V58.875H184.07V61.4688ZM207.867 62.2969V63.3125H204.508V68.2656H203.273V63.3125H199.711V68.2656H198.445V63.3125H195.148V62.2969H207.867ZM196.586 57.9688C196.594 56.1172 198.555 54.9453 201.477 54.9375C204.391 54.9453 206.367 56.1172 206.367 57.9688C206.367 59.8203 204.391 60.9766 201.477 60.9688C198.555 60.9766 196.594 59.8203 196.586 57.9688ZM197.852 57.9688C197.836 59.1953 199.312 59.9844 201.477 59.9844C203.641 59.9844 205.109 59.1953 205.117 57.9688C205.109 56.7344 203.641 55.9375 201.477 55.9375C199.312 55.9375 197.836 56.7344 197.852 57.9688ZM211.273 65.9531L210.055 70.2031H208.898L209.758 65.9531H211.273ZM222.664 61.9062V64.0469C223.836 63.9766 225.008 63.8672 226.117 63.7031L226.273 65.1562C223.117 65.7578 219.742 65.7891 217.258 65.7969L217.023 64.1875C218.094 64.1875 219.352 64.1797 220.68 64.1406V61.9062H222.664ZM217.305 60.8438C219.453 60.2734 220.5 58.9453 220.633 57.5H217.758V55.8906H220.68V54.3438H222.664V55.8906H225.602V57.5H222.695C222.828 58.875 223.891 60.1641 226.039 60.6875L225.133 62.2344C223.469 61.8125 222.32 60.8906 221.672 59.7109C221.055 60.9531 219.922 61.9141 218.242 62.3438L217.305 60.8438ZM226.93 68.4688V54.2188H228.914V68.4688H226.93ZM243.086 54.2188V68.4375H241.195V61.2969H239.82V67.75H237.992V54.4531H239.82V59.7031H241.195V54.2188H243.086ZM231.195 65.2188V55.8594H236.492V57.4688H233.195V63.5469C234.57 63.5234 235.789 63.4453 237.164 63.2031L237.305 64.8281C235.57 65.1562 234.055 65.2109 232.18 65.2188H231.195ZM253.023 67.1562C250.438 67.1562 248.586 65.7969 248.586 63.9531C248.586 62.5312 249.68 61.375 251.086 61.1562V61.0781C249.859 60.8438 249.016 59.8203 249.023 58.5781C249.016 56.8203 250.711 55.5312 253.023 55.5312C255.336 55.5312 257.031 56.8203 257.039 58.5781C257.031 59.8203 256.164 60.8438 254.977 61.0781V61.1562C256.352 61.375 257.461 62.5312 257.461 63.9531C257.461 65.7969 255.602 67.1562 253.023 67.1562ZM251.039 63.7188C251.031 64.6875 251.828 65.3672 253.023 65.3594C254.219 65.3672 255.016 64.6875 255.008 63.7188C255.016 62.7422 254.172 62.0234 253.023 62.0156C251.875 62.0234 251.031 62.7344 251.039 63.7188ZM251.32 58.8125C251.312 59.7188 252.023 60.3516 253.023 60.3594C254.016 60.3516 254.734 59.7188 254.742 58.8125C254.734 57.9297 254.031 57.3125 253.023 57.3125C252.008 57.3125 251.312 57.9297 251.32 58.8125ZM263.227 67.1562C260.867 67.1562 259.141 65.7656 259.102 63.8125H261.383C261.438 64.6953 262.242 65.3047 263.227 65.2969C264.398 65.3047 265.234 64.4766 265.227 63.2969C265.234 62.0938 264.383 61.2578 263.195 61.25C262.344 61.25 261.75 61.5703 261.414 62.2031H259.289L259.898 55.6875H266.867V57.6094H261.836L261.523 60.4688H261.617C262.031 59.9141 262.891 59.5078 263.883 59.5156C265.961 59.5078 267.508 61.0625 267.508 63.2344C267.508 65.5234 265.773 67.1562 263.227 67.1562ZM272.07 61.3438C270.375 61.3438 269.461 60.1094 269.461 58.3281C269.461 56.5391 270.422 55.2969 272.07 55.2969C273.766 55.2969 274.672 56.5391 274.68 58.3281C274.672 60.125 273.742 61.3438 272.07 61.3438ZM271.055 58.3281C271.062 59.3047 271.414 59.9453 272.07 59.9531C272.742 59.9453 273.078 59.3047 273.086 58.3281C273.078 57.3516 272.773 56.6875 272.07 56.6875C271.406 56.6953 271.062 57.3672 271.055 58.3281ZM271.086 67L278.867 55.6875H280.617L272.836 67H271.086ZM277.102 64.3594C277.102 62.5703 278.062 61.3359 279.695 61.3281C281.406 61.3359 282.312 62.5703 282.32 64.3594C282.312 66.1562 281.383 67.375 279.695 67.375C278.016 67.375 277.102 66.1406 277.102 64.3594ZM278.695 64.3594C278.703 65.3359 279.055 65.9844 279.695 65.9844C280.383 65.9844 280.719 65.3359 280.727 64.3594C280.719 63.3828 280.406 62.7188 279.695 62.7344C279.039 62.7266 278.703 63.3984 278.695 64.3594ZM299.008 54.3281V57.7031H301.117V58.7188H299.008V62.0156H297.789V54.3281H299.008ZM288.18 56.625V55.6406H291.711V54.2344H292.93V55.6406H296.461V56.625H288.18ZM288.977 59.5312C288.969 58.125 290.297 57.2578 292.32 57.25C294.336 57.2578 295.648 58.125 295.664 59.5312C295.648 60.9453 294.336 61.8047 292.32 61.8125C290.297 61.8047 288.969 60.9453 288.977 59.5312ZM290.148 63.6562V62.7344H299.008V65.8125H291.383V67.1719H299.523V68.1094H290.18V64.9062H297.789V63.6562H290.148ZM290.148 59.5312C290.141 60.3672 291 60.8906 292.32 60.8906C293.633 60.8906 294.492 60.3672 294.508 59.5312C294.492 58.7031 293.633 58.1641 292.32 58.1562C291 58.1641 290.141 58.7031 290.148 59.5312ZM313.445 54.3906V64.5469H312.227V54.3906H313.445ZM302.305 58.7656C302.297 56.7656 303.867 55.3672 305.945 55.3594C308.023 55.3672 309.578 56.7656 309.586 58.7656C309.578 60.7891 308.023 62.1953 305.945 62.1875C303.867 62.1953 302.297 60.7891 302.305 58.7656ZM303.508 58.7656C303.492 60.1484 304.539 61.1094 305.945 61.1094C307.328 61.1094 308.383 60.1484 308.383 58.7656C308.383 57.4062 307.328 56.4375 305.945 56.4375C304.539 56.4375 303.492 57.4062 303.508 58.7656ZM304.477 67.9688V63.5156H305.695V66.9375H313.883V67.9688H304.477ZM331.727 54.375V68.2656H330.539V54.375H331.727ZM319.789 57.7812V56.7812H322.633V54.75H323.867V56.7812H326.711V57.7812H319.789ZM320.305 61.9375C320.297 60.0391 321.531 58.7344 323.227 58.7344C324.938 58.7344 326.164 60.0391 326.164 61.9375C326.164 62.0469 326.156 62.1562 326.148 62.2656H327.961V60.1094H326.008V59.0938H327.961V54.6875H329.117V67.5781H327.961V63.25H325.938C325.516 64.4062 324.508 65.1406 323.227 65.1406C321.531 65.1406 320.297 63.8281 320.305 61.9375ZM321.383 61.9375C321.383 63.1875 322.156 64.0859 323.227 64.0781C324.305 64.0859 325.078 63.1875 325.086 61.9375C325.078 60.6719 324.305 59.7969 323.227 59.7812C322.156 59.7969 321.383 60.6719 321.383 61.9375ZM339.664 55.3906V56.4219H335.445V58.1562H339.508V59.125H335.445V61.0469C337.469 61.0391 338.734 60.9609 340.227 60.6719L340.352 61.6875C338.719 62.0078 337.406 62.0703 335.148 62.0781H334.273V55.3906H339.664ZM336.086 64.5312V63.5312H345.445V68.2656H344.242V64.5312H336.086ZM341.18 62.7188V54.6562H342.32V58.0156H344.273V54.3906H345.445V62.8125H344.273V59.0156H342.32V62.7188H341.18Z" fill="white"/>
<defs>
<linearGradient id="paint0_linear_2159_51983" x1="-56" y1="11.5" x2="334" y2="140" gradientUnits="userSpaceOnUse">
<stop stop-color="#FF7C7C"/>
<stop offset="1" stop-color="#FC6AA4"/>
</linearGradient>
<linearGradient id="paint1_linear_2159_51983" x1="119" y1="12" x2="119" y2="124.5" gradientUnits="userSpaceOnUse">
<stop stop-color="#E90041"/>
<stop offset="0.83" stop-color="#EA2A60" stop-opacity="0"/>
</linearGradient>
<clipPath id="clip0_2159_51983">
<rect width="12" height="12" fill="white" transform="translate(336 41) rotate(-90)"/>
</clipPath>
</defs>
</svg>
