<svg width="550" height="88" viewBox="0 0 550 88" fill="none" xmlns="http://www.w3.org/2000/svg">
<mask id="path-1-inside-1_2159_51993" fill="white">
<path d="M0 30C0 13.4315 13.4315 0 30 0H520C536.569 0 550 13.4315 550 30V88H0V30Z"/>
</mask>
<path d="M0 30C0 13.4315 13.4315 0 30 0H520C536.569 0 550 13.4315 550 30V88H0V30Z" fill="url(#paint0_linear_2159_51993)"/>
<path d="M-1 30C-1 12.8792 12.8792 -1 30 -1H520C537.121 -1 551 12.8792 551 30H549C549 13.9837 536.016 1 520 1H30C13.9837 1 1 13.9837 1 30H-1ZM550 88H0H550ZM-1 88V30C-1 12.8792 12.8792 -1 30 -1V1C13.9837 1 1 13.9837 1 30V88H-1ZM520 -1C537.121 -1 551 12.8792 551 30V88H549V30C549 13.9837 536.016 1 520 1V-1Z" fill="white" mask="url(#path-1-inside-1_2159_51993)"/>
<g opacity="0.5">
<path d="M124.286 39.0444V57.4164H115.965V39.7382C115.965 36.0691 113.572 33.294 109.266 33.294C105.345 33.294 102.553 36.0691 102.553 39.8182V57.4298H94.2459V26.1159H102.221V29.7983C104.228 26.7163 108.335 25.7557 111.246 25.7557C120.803 25.7557 124.286 32.0131 124.286 39.0444ZM45.4112 26.1293L37.1701 45.7555L28.7164 26.1293H19L32.7306 55.4818L24.8883 72.9199H34.2592L55.1542 26.1293H45.4112ZM162.075 41.993C162.075 50.9322 154.778 58.1903 145.792 58.1903C136.807 58.1903 129.51 50.9455 129.51 41.993C129.51 33.0405 136.807 25.7957 145.792 25.7957C154.778 25.7957 162.075 33.0405 162.075 41.993ZM153.887 41.993C153.887 37.5501 150.258 33.9344 145.779 33.9344C141.3 33.9344 137.684 37.5367 137.684 41.993C137.684 46.4493 141.313 50.0516 145.779 50.0516C150.245 50.0516 153.887 46.4493 153.887 41.993ZM87.6664 42.9269V57.4298H80.1564V54.201C77.7107 56.6559 74.5339 58.1503 71.1311 58.1503C62.1325 58.1503 54.8485 50.9055 54.8485 41.953C54.8485 33.0004 62.1458 25.7557 71.1311 25.7557C80.1165 25.7557 87.6664 32.8136 87.6664 42.9269ZM79.226 41.993C79.226 37.5501 75.5973 33.9344 71.1311 33.9344C66.665 33.9344 63.0363 37.5367 63.0363 41.993C63.0363 46.4493 66.665 50.0516 71.1311 50.0516C75.5973 50.0516 79.226 46.4493 79.226 41.993ZM229 42.9269V57.4298H221.49V54.201C219.044 56.6559 215.881 58.1503 212.465 58.1503C203.466 58.1503 196.182 50.9055 196.182 41.953C196.182 33.0004 203.479 25.7557 212.465 25.7557C221.45 25.7557 229 32.8136 229 42.9269ZM220.56 41.993C220.56 37.5501 216.931 33.9344 212.451 33.9344C207.972 33.9344 204.357 37.5367 204.357 41.993C204.357 46.4493 207.985 50.0516 212.451 50.0516C216.918 50.0516 220.56 46.4493 220.56 41.993ZM167.365 57.4164H175.832V12H167.365V57.4164ZM182.638 56.9762C182.638 62.78 179.128 64.6879 175.899 64.6879V73C180.724 73 190.958 71.6391 191.012 57.1363V26.1159H182.624V56.9762H182.638Z" fill="url(#paint1_linear_2159_51993)"/>
</g>
<path d="M423.469 28.9531C425.516 28.9609 426.969 30.8438 426.984 33.7969C426.969 36.7578 425.516 38.6328 423.469 38.625C421.406 38.6328 419.961 36.7578 419.969 33.7969C419.961 30.8438 421.406 28.9609 423.469 28.9531ZM421.125 33.7969C421.133 36.0547 422.094 37.5391 423.469 37.5312C424.859 37.5391 425.797 36.0547 425.797 33.7969C425.797 31.5391 424.859 30.0547 423.469 30.0469C422.094 30.0547 421.133 31.5391 421.125 33.7969ZM429.281 41.7656V27.875H430.5V31.375H432.75V32.4219H430.5V35.5156H432.75V36.5469H430.5V41.7656H429.281ZM444.781 31.1875V32.2031H440.516V33.7188H446.281V34.75H433.562V33.7188H439.312V32.2031H435.297V28.1094H436.5V31.1875H444.781ZM435.156 36.8594V35.8906H444.641V39.0781H436.422V40.5938H445.141V41.5781H435.188V38.1719H443.438V36.8594H435.156ZM452.109 32.1406C452.094 34.3672 453.703 36.8203 455.719 37.7812L455.016 38.75C453.453 37.9844 452.133 36.3438 451.508 34.4609C450.867 36.5 449.477 38.2969 447.922 39.0938L447.172 38.125C449.172 37.1484 450.891 34.5078 450.906 32.1406V30.3281H447.672V29.3125H455.234V30.3281H452.109V32.1406ZM456.938 41.7656V27.875H458.156V33.5H460.484V34.5469H458.156V41.7656H456.938ZM476 27.875V33.3438H478.328V34.4062H476V41.7656H474.781V27.875H476ZM465.828 38.4375V29.0625H467.047V32.7344H471.109V29.0625H472.328V38.4375H465.828ZM467.047 37.4062H471.109V33.7188H467.047V37.4062ZM491.797 39.0156V40.0469H479.078V39.0156H484.797V36.3906H480.672V32.1094H488.984V29.9219H480.641V28.9062H490.188V33.1094H481.891V35.375H490.516V36.3906H486V39.0156H491.797ZM503.656 27.875V33.5312H505.906V34.5625H503.656V41.7656H502.438V27.875H503.656ZM493 38.1562C496.586 36.375 498.539 33.6953 498.82 30.4062H493.641V29.375H500.062C500.055 33.3047 498.211 36.8906 493.688 39.125L493 38.1562ZM518.219 27.875V41.7656H516.984V27.875H518.219ZM506.906 38.1562C510.664 36.375 512.586 33.7109 512.859 30.3906H507.547V29.3906H514.109C514.094 33.3828 512.234 36.9219 507.578 39.1562L506.906 38.1562Z" fill="white"/>
<g clip-path="url(#clip0_2159_51993)">
<path d="M528.5 39.8154L533.5 35L528.5 30.1845" stroke="white" stroke-width="1.5" stroke-linecap="round" stroke-linejoin="round"/>
</g>
<path d="M287.977 54.8438V55.9531C287.984 57 287.984 58.2031 287.688 59.7344H289.523V61.3281H283.992V63.375H287.992V68.4375H285.992V64.9375H277.82V63.375H281.992V61.3281H276.508V59.7344H285.672C285.938 58.3984 285.977 57.3594 285.992 56.4219H278.102V54.8438H287.977ZM302.602 54.2188V68.4375H300.68V61.3281H299.352V67.75H297.477V54.4531H299.352V59.7188H300.68V54.2188H302.602ZM290.914 64.9688V55.7969H292.914V63.2266C294.055 63.1953 295.312 63.0938 296.68 62.8281L296.883 64.5469C294.977 64.875 293.352 64.9766 291.883 64.9688H290.914ZM313.555 61.9062V64.0469C314.727 63.9766 315.898 63.8672 317.008 63.7031L317.164 65.1562C314.008 65.7578 310.633 65.7891 308.148 65.7969L307.914 64.1875C308.984 64.1875 310.242 64.1797 311.57 64.1406V61.9062H313.555ZM308.195 60.8438C310.344 60.2734 311.391 58.9453 311.523 57.5H308.648V55.8906H311.57V54.3438H313.555V55.8906H316.492V57.5H313.586C313.719 58.875 314.781 60.1641 316.93 60.6875L316.023 62.2344C314.359 61.8125 313.211 60.8906 312.562 59.7109C311.945 60.9531 310.812 61.9141 309.133 62.3438L308.195 60.8438ZM317.82 68.4688V54.2188H319.805V68.4688H317.82ZM332.898 54.2188V59.5H334.992V61.125H332.898V68.4688H330.898V54.2188H332.898ZM322.242 65.0156V55.5312H328.914V57.1406H324.227V63.375C326.289 63.3594 327.992 63.25 329.883 62.9219L330.102 64.5938C327.891 64.9688 325.953 65.0234 323.445 65.0156H322.242ZM346.633 55.2188C346.625 56.9766 349.156 58.5391 351.602 58.8906L351.117 59.8438C348.992 59.5078 346.883 58.3984 346 56.8281C345.117 58.4062 343 59.5078 340.867 59.8438L340.398 58.8906C342.859 58.5391 345.367 57.0078 345.367 55.2188V54.5625H346.633V55.2188ZM339.664 61.9688V60.9531H352.32V61.9688H346.586V63.75H350.758V68.2656H349.523V64.75H341.07V63.75H345.383V61.9688H339.664ZM366.211 65.4375V66.4531H353.492V65.4375H359.18V62.0312H360.383V65.4375H366.211ZM353.992 61.1719C356.422 60.7578 359.125 58.7266 359.133 56.3906V55.3281H360.414V56.3906C360.422 58.7109 363.164 60.7578 365.586 61.1719L365.039 62.1875C362.922 61.75 360.688 60.3203 359.789 58.3203C358.875 60.3125 356.664 61.75 354.539 62.1875L353.992 61.1719ZM384.055 65.4688V66.4844H371.336V65.4688H377.055V62.4688H372.836V55.3594H374.07V57.875H381.289V55.3594H382.492V62.4688H378.258V65.4688H384.055ZM374.07 61.4688H381.289V58.875H374.07V61.4688ZM397.867 62.2969V63.3125H394.508V68.2656H393.273V63.3125H389.711V68.2656H388.445V63.3125H385.148V62.2969H397.867ZM386.586 57.9688C386.594 56.1172 388.555 54.9453 391.477 54.9375C394.391 54.9453 396.367 56.1172 396.367 57.9688C396.367 59.8203 394.391 60.9766 391.477 60.9688C388.555 60.9766 386.594 59.8203 386.586 57.9688ZM387.852 57.9688C387.836 59.1953 389.312 59.9844 391.477 59.9844C393.641 59.9844 395.109 59.1953 395.117 57.9688C395.109 56.7344 393.641 55.9375 391.477 55.9375C389.312 55.9375 387.836 56.7344 387.852 57.9688ZM401.273 65.9531L400.055 70.2031H398.898L399.758 65.9531H401.273ZM412.664 61.9062V64.0469C413.836 63.9766 415.008 63.8672 416.117 63.7031L416.273 65.1562C413.117 65.7578 409.742 65.7891 407.258 65.7969L407.023 64.1875C408.094 64.1875 409.352 64.1797 410.68 64.1406V61.9062H412.664ZM407.305 60.8438C409.453 60.2734 410.5 58.9453 410.633 57.5H407.758V55.8906H410.68V54.3438H412.664V55.8906H415.602V57.5H412.695C412.828 58.875 413.891 60.1641 416.039 60.6875L415.133 62.2344C413.469 61.8125 412.32 60.8906 411.672 59.7109C411.055 60.9531 409.922 61.9141 408.242 62.3438L407.305 60.8438ZM416.93 68.4688V54.2188H418.914V68.4688H416.93ZM433.086 54.2188V68.4375H431.195V61.2969H429.82V67.75H427.992V54.4531H429.82V59.7031H431.195V54.2188H433.086ZM421.195 65.2188V55.8594H426.492V57.4688H423.195V63.5469C424.57 63.5234 425.789 63.4453 427.164 63.2031L427.305 64.8281C425.57 65.1562 424.055 65.2109 422.18 65.2188H421.195ZM443.023 67.1562C440.438 67.1562 438.586 65.7969 438.586 63.9531C438.586 62.5312 439.68 61.375 441.086 61.1562V61.0781C439.859 60.8438 439.016 59.8203 439.023 58.5781C439.016 56.8203 440.711 55.5312 443.023 55.5312C445.336 55.5312 447.031 56.8203 447.039 58.5781C447.031 59.8203 446.164 60.8438 444.977 61.0781V61.1562C446.352 61.375 447.461 62.5312 447.461 63.9531C447.461 65.7969 445.602 67.1562 443.023 67.1562ZM441.039 63.7188C441.031 64.6875 441.828 65.3672 443.023 65.3594C444.219 65.3672 445.016 64.6875 445.008 63.7188C445.016 62.7422 444.172 62.0234 443.023 62.0156C441.875 62.0234 441.031 62.7344 441.039 63.7188ZM441.32 58.8125C441.312 59.7188 442.023 60.3516 443.023 60.3594C444.016 60.3516 444.734 59.7188 444.742 58.8125C444.734 57.9297 444.031 57.3125 443.023 57.3125C442.008 57.3125 441.312 57.9297 441.32 58.8125ZM453.227 67.1562C450.867 67.1562 449.141 65.7656 449.102 63.8125H451.383C451.438 64.6953 452.242 65.3047 453.227 65.2969C454.398 65.3047 455.234 64.4766 455.227 63.2969C455.234 62.0938 454.383 61.2578 453.195 61.25C452.344 61.25 451.75 61.5703 451.414 62.2031H449.289L449.898 55.6875H456.867V57.6094H451.836L451.523 60.4688H451.617C452.031 59.9141 452.891 59.5078 453.883 59.5156C455.961 59.5078 457.508 61.0625 457.508 63.2344C457.508 65.5234 455.773 67.1562 453.227 67.1562ZM462.07 61.3438C460.375 61.3438 459.461 60.1094 459.461 58.3281C459.461 56.5391 460.422 55.2969 462.07 55.2969C463.766 55.2969 464.672 56.5391 464.68 58.3281C464.672 60.125 463.742 61.3438 462.07 61.3438ZM461.055 58.3281C461.062 59.3047 461.414 59.9453 462.07 59.9531C462.742 59.9453 463.078 59.3047 463.086 58.3281C463.078 57.3516 462.773 56.6875 462.07 56.6875C461.406 56.6953 461.062 57.3672 461.055 58.3281ZM461.086 67L468.867 55.6875H470.617L462.836 67H461.086ZM467.102 64.3594C467.102 62.5703 468.062 61.3359 469.695 61.3281C471.406 61.3359 472.312 62.5703 472.32 64.3594C472.312 66.1562 471.383 67.375 469.695 67.375C468.016 67.375 467.102 66.1406 467.102 64.3594ZM468.695 64.3594C468.703 65.3359 469.055 65.9844 469.695 65.9844C470.383 65.9844 470.719 65.3359 470.727 64.3594C470.719 63.3828 470.406 62.7188 469.695 62.7344C469.039 62.7266 468.703 63.3984 468.695 64.3594ZM489.008 54.3281V57.7031H491.117V58.7188H489.008V62.0156H487.789V54.3281H489.008ZM478.18 56.625V55.6406H481.711V54.2344H482.93V55.6406H486.461V56.625H478.18ZM478.977 59.5312C478.969 58.125 480.297 57.2578 482.32 57.25C484.336 57.2578 485.648 58.125 485.664 59.5312C485.648 60.9453 484.336 61.8047 482.32 61.8125C480.297 61.8047 478.969 60.9453 478.977 59.5312ZM480.148 63.6562V62.7344H489.008V65.8125H481.383V67.1719H489.523V68.1094H480.18V64.9062H487.789V63.6562H480.148ZM480.148 59.5312C480.141 60.3672 481 60.8906 482.32 60.8906C483.633 60.8906 484.492 60.3672 484.508 59.5312C484.492 58.7031 483.633 58.1641 482.32 58.1562C481 58.1641 480.141 58.7031 480.148 59.5312ZM503.445 54.3906V64.5469H502.227V54.3906H503.445ZM492.305 58.7656C492.297 56.7656 493.867 55.3672 495.945 55.3594C498.023 55.3672 499.578 56.7656 499.586 58.7656C499.578 60.7891 498.023 62.1953 495.945 62.1875C493.867 62.1953 492.297 60.7891 492.305 58.7656ZM493.508 58.7656C493.492 60.1484 494.539 61.1094 495.945 61.1094C497.328 61.1094 498.383 60.1484 498.383 58.7656C498.383 57.4062 497.328 56.4375 495.945 56.4375C494.539 56.4375 493.492 57.4062 493.508 58.7656ZM494.477 67.9688V63.5156H495.695V66.9375H503.883V67.9688H494.477ZM521.727 54.375V68.2656H520.539V54.375H521.727ZM509.789 57.7812V56.7812H512.633V54.75H513.867V56.7812H516.711V57.7812H509.789ZM510.305 61.9375C510.297 60.0391 511.531 58.7344 513.227 58.7344C514.938 58.7344 516.164 60.0391 516.164 61.9375C516.164 62.0469 516.156 62.1562 516.148 62.2656H517.961V60.1094H516.008V59.0938H517.961V54.6875H519.117V67.5781H517.961V63.25H515.938C515.516 64.4062 514.508 65.1406 513.227 65.1406C511.531 65.1406 510.297 63.8281 510.305 61.9375ZM511.383 61.9375C511.383 63.1875 512.156 64.0859 513.227 64.0781C514.305 64.0859 515.078 63.1875 515.086 61.9375C515.078 60.6719 514.305 59.7969 513.227 59.7812C512.156 59.7969 511.383 60.6719 511.383 61.9375ZM529.664 55.3906V56.4219H525.445V58.1562H529.508V59.125H525.445V61.0469C527.469 61.0391 528.734 60.9609 530.227 60.6719L530.352 61.6875C528.719 62.0078 527.406 62.0703 525.148 62.0781H524.273V55.3906H529.664ZM526.086 64.5312V63.5312H535.445V68.2656H534.242V64.5312H526.086ZM531.18 62.7188V54.6562H532.32V58.0156H534.273V54.3906H535.445V62.8125H534.273V59.0156H532.32V62.7188H531.18Z" fill="white"/>
<defs>
<linearGradient id="paint0_linear_2159_51993" x1="-85.5556" y1="11.5" x2="441.428" y2="276.775" gradientUnits="userSpaceOnUse">
<stop stop-color="#FF7C7C"/>
<stop offset="1" stop-color="#FC6AA4"/>
</linearGradient>
<linearGradient id="paint1_linear_2159_51993" x1="124" y1="12" x2="124" y2="124.5" gradientUnits="userSpaceOnUse">
<stop stop-color="#E90041"/>
<stop offset="0.83" stop-color="#EA2A60" stop-opacity="0"/>
</linearGradient>
<clipPath id="clip0_2159_51993">
<rect width="12" height="12" fill="white" transform="translate(525 41) rotate(-90)"/>
</clipPath>
</defs>
</svg>
