<svg width="117" height="73" viewBox="0 0 117 73" fill="none" xmlns="http://www.w3.org/2000/svg">
<path fill-rule="evenodd" clip-rule="evenodd" d="M32.2587 72.4645L32.3341 71.4945C32.6116 71.516 32.8923 71.527 33.1757 71.527H34.1112V72.5H33.1757C32.8671 72.5 32.5613 72.488 32.2587 72.4645ZM80.8888 72.5V71.527H81.8243C82.1077 71.527 82.3884 71.516 82.6659 71.4945L82.7413 72.4645C82.4387 72.488 82.1329 72.5 81.8243 72.5H80.8888ZM84.5511 72.1799L84.3247 71.2336C84.8745 71.1021 85.4078 70.9281 85.9209 70.7153L86.2936 71.614C85.7335 71.8463 85.1513 72.0363 84.5511 72.1799ZM87.9256 70.781L87.4164 69.9519C87.8954 69.6577 88.3495 69.3269 88.7749 68.9632L89.4072 69.7028C88.9433 70.0993 88.448 70.4601 87.9256 70.781ZM90.7028 68.4072L89.9632 67.7749C90.3269 67.3495 90.6577 66.8954 90.9519 66.4164L91.781 66.9256C91.4601 67.448 91.0993 67.9433 90.7028 68.4072ZM92.614 65.2936L91.7153 64.9209C91.9281 64.4078 92.1021 63.8745 92.2336 63.3247L93.1799 63.5511C93.0363 64.1513 92.8463 64.7335 92.614 65.2936ZM93.5 13.1112H92.527V12.1757C92.527 11.8923 92.516 11.6116 92.4945 11.3341L93.4645 11.2587C93.488 11.5613 93.5 11.8671 93.5 12.1757V13.1112ZM93.1799 9.44887L92.2336 9.67526C92.1021 9.12549 91.9281 8.59223 91.7153 8.07907L92.614 7.70637C92.8463 8.26653 93.0363 8.8487 93.1799 9.44887ZM91.781 6.07444L90.9519 6.58359C90.6577 6.10465 90.3269 5.65049 89.9632 5.22508L90.7028 4.59285C91.0993 5.05668 91.4601 5.55197 91.781 6.07444ZM89.4072 3.29721L88.7749 4.03677C88.3495 3.67309 87.8954 3.34226 87.4164 3.04814L87.9256 2.21902C88.448 2.53986 88.9433 2.90068 89.4072 3.29721ZM86.2936 1.38596L85.9209 2.28472C85.4078 2.07192 84.8745 1.89794 84.3247 1.7664L84.5511 0.820135C85.1513 0.963727 85.7335 1.15367 86.2936 1.38596ZM34.1112 0.5H33.1757C32.8671 0.5 32.5613 0.511972 32.2587 0.535478L32.3341 1.50553C32.6116 1.48397 32.8923 1.47297 33.1757 1.47297H34.1112V0.5ZM30.4489 0.820134L30.6753 1.7664C30.1255 1.89794 29.5922 2.07192 29.0791 2.28472L28.7064 1.38596C29.2665 1.15367 29.8487 0.963727 30.4489 0.820134ZM27.0744 2.21902L27.5836 3.04814C27.1046 3.34226 26.6505 3.67309 26.2251 4.03677L25.5928 3.29721C26.0567 2.90068 26.552 2.53986 27.0744 2.21902ZM24.2972 4.59285C23.9007 5.05668 23.5399 5.55197 23.219 6.07444L24.0481 6.58359C24.3423 6.10465 24.6731 5.65049 25.0368 5.22508L24.2972 4.59285ZM22.386 7.70637L23.2847 8.07907C23.0719 8.59223 22.8979 9.12549 22.7664 9.67526L21.8201 9.44887C21.9637 8.8487 22.1537 8.26653 22.386 7.70637ZM21.5 59.8888H22.473V60.8243C22.473 61.1077 22.484 61.3884 22.5055 61.6659L21.5355 61.7413C21.512 61.4387 21.5 61.1329 21.5 60.8243V59.8888ZM21.8201 63.5511L22.7664 63.3247C22.8979 63.8745 23.0719 64.4078 23.2847 64.9209L22.386 65.2936C22.1537 64.7335 21.9637 64.1513 21.8201 63.5511ZM23.219 66.9256L24.0481 66.4164C24.3423 66.8954 24.6731 67.3495 25.0368 67.7749L24.2972 68.4072C23.9007 67.9433 23.5399 67.448 23.219 66.9256ZM25.5928 69.7028L26.2251 68.9632C26.6505 69.3269 27.1046 69.6577 27.5836 69.9519L27.0744 70.781C26.552 70.4601 26.0567 70.0993 25.5928 69.7028ZM30.4489 72.1799L30.6753 71.2336C30.1255 71.1021 29.5922 70.9281 29.0791 70.7153L28.7064 71.614C29.2665 71.8463 29.8487 72.0363 30.4489 72.1799ZM21.5 58.0177H22.473V56.1466H21.5V58.0177ZM21.5 54.2755H22.473V52.4044H21.5V54.2755ZM21.5 50.5333H22.473V48.6622H21.5V50.5333ZM21.5 46.7911H22.473V44.92H21.5V46.7911ZM21.5 28.08H22.473V26.2089H21.5V28.08ZM21.5 24.3378H22.473V22.4667H21.5V24.3378ZM21.5 20.5956H22.473V18.7245H21.5V20.5956ZM21.5 16.8534H22.473V14.9823H21.5V16.8534ZM21.5 13.1112H22.473V12.1757C22.473 11.8923 22.484 11.6116 22.5055 11.3341L21.5355 11.2587C21.512 11.5613 21.5 11.8671 21.5 12.1757V13.1112ZM35.9823 0.5V1.47297H37.8534V0.5H35.9823ZM39.7245 0.5V1.47297H41.5956V0.5H39.7245ZM43.4667 0.5V1.47297H45.3378V0.5H43.4667ZM47.2089 0.5V1.47297H49.08V0.5H47.2089ZM50.9511 0.5V1.47297H52.8222V0.5H50.9511ZM54.6933 0.5V1.47297H56.5644V0.5H54.6933ZM58.4356 0.5V1.47297H60.3067V0.5H58.4356ZM62.1778 0.5V1.47297H64.0489V0.5H62.1778ZM65.92 0.5V1.47297H67.7911V0.5H65.92ZM69.6622 0.5V1.47297H71.5333V0.5H69.6622ZM73.4044 0.5V1.47297H75.2755V0.5H73.4044ZM77.1466 0.5V1.47297H79.0177V0.5H77.1466ZM80.8888 0.5V1.47297H81.8243C82.1077 1.47297 82.3884 1.48397 82.6659 1.50553L82.7413 0.535478C82.4387 0.511972 82.1329 0.5 81.8243 0.5H80.8888ZM93.5 14.9823H92.527V16.8534H93.5V14.9823ZM93.5 18.7245H92.527V20.5956H93.5V18.7245ZM93.5 22.4667H92.527V24.3378H93.5V22.4667ZM93.5 26.2089H92.527V28.08H93.5V26.2089ZM93.5 44.92H92.527V46.7911H93.5V44.92ZM93.5 48.6622H92.527V50.5333H93.5V48.6622ZM93.5 52.4044H92.527V54.2755H93.5V52.4044ZM93.5 56.1466H92.527V58.0177H93.5V56.1466ZM93.5 59.8888H92.527V60.8243C92.527 61.1077 92.516 61.3884 92.4945 61.6659L93.4645 61.7413C93.488 61.4387 93.5 61.1329 93.5 60.8243V59.8888ZM79.0177 72.5V71.527H77.1466V72.5H79.0177ZM75.2755 72.5V71.527H73.4044V72.5H75.2755ZM71.5333 72.5V71.527H69.6622V72.5H71.5333ZM67.7911 72.5V71.527H65.92V72.5H67.7911ZM64.0489 72.5V71.527H62.1778V72.5H64.0489ZM60.3067 72.5V71.527H58.4356V72.5H60.3067ZM56.5645 72.5V71.527H54.6934V72.5H56.5645ZM52.8222 72.5V71.527H50.9511V72.5H52.8222ZM49.08 72.5V71.527H47.2089V72.5H49.08ZM45.3378 72.5V71.527H43.4667V72.5H45.3378ZM41.5956 72.5V71.527H39.7245V72.5H41.5956ZM37.8534 72.5V71.527H35.9823V72.5H37.8534Z" fill="#CCCCCC"/>
<path fill-rule="evenodd" clip-rule="evenodd" d="M91.3378 41.9256C92.2455 42.4837 93.2586 42.7627 94.377 42.7627C94.9767 42.7627 95.544 42.683 96.0789 42.5235C96.6301 42.3481 97.1163 42.1169 97.5377 41.8299C97.8743 41.5969 98.1581 41.3451 98.3892 41.0744L98.4617 42.5235H101.72V24.8242H98.2915V31.2326C98.0919 31.0203 97.865 30.8216 97.6107 30.6363C97.173 30.3174 96.6706 30.0702 96.1032 29.8948C95.5521 29.7035 94.9767 29.6078 94.377 29.6078C93.2424 29.6078 92.2293 29.8948 91.3378 30.4689C90.4463 31.0429 89.7412 31.8242 89.2225 32.8128C88.7201 33.8014 88.4688 34.9336 88.4688 36.2092C88.4688 37.4689 88.7201 38.601 89.2225 39.6055C89.7412 40.5942 90.4463 41.3675 91.3378 41.9256ZM96.8327 39.462C96.3626 39.7809 95.7953 39.9404 95.1307 39.9404C94.4986 39.9404 93.9394 39.7809 93.4531 39.462C92.9668 39.1431 92.5859 38.7046 92.3104 38.1465C92.051 37.5885 91.9213 36.9427 91.9213 36.2092C91.9213 35.4598 92.051 34.806 92.3104 34.2479C92.5859 33.6739 92.9668 33.2354 93.4531 32.9324C93.9394 32.6135 94.4986 32.4541 95.1307 32.4541C95.7953 32.4541 96.3626 32.6135 96.8327 32.9324C97.3189 33.2354 97.6998 33.6739 97.9754 34.2479C98.2509 34.806 98.3887 35.4598 98.3887 36.2092C98.3887 36.9427 98.2509 37.5885 97.9754 38.1465C97.6998 38.7046 97.3189 39.1431 96.8327 39.462ZM11.1758 30.1999L7.84468 38.0118L4.42755 30.1999H0.5L6.05015 41.8832L2.88017 48.8242H6.66803L15.1141 30.1999H11.1758ZM28.2561 36.8859V42.6586H25.2205V41.3734C24.2319 42.3506 22.9478 42.9454 21.5723 42.9454C17.9349 42.9454 14.9906 40.0617 14.9906 36.4983C14.9906 32.9348 17.9403 30.0512 21.5723 30.0512C25.2044 30.0512 28.2561 32.8605 28.2561 36.8859ZM24.8444 36.5142C24.8444 34.7458 23.3776 33.3066 21.5723 33.3066C19.767 33.3066 18.3002 34.7404 18.3002 36.5142C18.3002 38.2879 19.767 39.7218 21.5723 39.7218C23.3776 39.7218 24.8444 38.2879 24.8444 36.5142ZM57.1512 36.8863V42.659H54.1155V41.3738C53.1269 42.3509 51.8428 42.9457 50.4674 42.9457C46.83 42.9457 43.8856 40.0621 43.8856 36.4986C43.8856 32.9352 46.8353 30.0515 50.4674 30.0515C54.0994 30.0515 57.1512 32.8608 57.1512 36.8863ZM53.7394 36.5146C53.7394 34.7461 52.2727 33.3069 50.4674 33.3069C48.6621 33.3069 47.1953 34.7408 47.1953 36.5146C47.1953 38.2883 48.6621 39.7222 50.4674 39.7222C52.2727 39.7222 53.7394 38.2883 53.7394 36.5146ZM86.9215 42.659V36.8863C86.9215 32.8608 83.8697 30.0515 80.2377 30.0515C76.6056 30.0515 73.656 32.9352 73.656 36.4986C73.656 40.0621 76.6003 42.9457 80.2377 42.9457C81.6131 42.9457 82.8972 42.3509 83.8858 41.3738V42.659H86.9215ZM80.2377 33.3069C82.043 33.3069 83.5098 34.7461 83.5098 36.5146C83.5098 38.2883 82.043 39.7222 80.2377 39.7222C78.4324 39.7222 76.9656 38.2883 76.9656 36.5146C76.9656 34.7408 78.4324 33.3069 80.2377 33.3069ZM116.5 36.8863V42.659H113.464V41.3738C112.476 42.3509 111.192 42.9457 109.816 42.9457C106.179 42.9457 103.234 40.0621 103.234 36.4986C103.234 32.9352 106.184 30.0515 109.816 30.0515C113.448 30.0515 116.5 32.8608 116.5 36.8863ZM113.088 36.5146C113.088 34.7461 111.621 33.3069 109.816 33.3069C108.011 33.3069 106.544 34.7408 106.544 36.5146C106.544 38.2883 108.011 39.7222 109.816 39.7222C111.621 39.7222 113.088 38.2883 113.088 36.5146ZM66.6233 42.7627C66.056 42.7627 65.5049 42.683 64.97 42.5235C64.4351 42.3481 63.9489 42.1249 63.5112 41.8538C63.1417 41.6249 62.8241 41.3676 62.5586 41.0819L62.4901 42.4757H59.2077V24.8242H62.6846V31.3027C62.9388 31.0114 63.2468 30.7494 63.6085 30.5167C64.0299 30.2297 64.4919 30.0065 64.9943 29.847C65.4968 29.6875 66.0074 29.6078 66.5261 29.6078C67.6607 29.6078 68.6657 29.8948 69.541 30.4689C70.4162 31.027 71.1051 31.8083 71.6076 32.8128C72.1263 33.8014 72.3856 34.9256 72.3856 36.1853C72.3856 37.4609 72.1344 38.593 71.6319 39.5816C71.1294 40.5702 70.4406 41.3516 69.5653 41.9256C68.7062 42.4837 67.7255 42.7627 66.6233 42.7627ZM65.7967 39.8686C66.445 39.8686 67.0042 39.7172 67.4743 39.4142C67.9606 39.0953 68.3415 38.6648 68.617 38.1226C68.8926 37.5645 69.0304 36.9188 69.0304 36.1853C69.0304 35.4677 68.8926 34.8379 68.617 34.2957C68.3577 33.7377 67.9849 33.3071 67.4986 33.0042C67.0124 32.6853 66.445 32.5258 65.7967 32.5258C65.1645 32.5258 64.6053 32.6853 64.1191 33.0042C63.6328 33.3071 63.2519 33.7377 62.9763 34.2957C62.7008 34.8379 62.563 35.4677 62.563 36.1853C62.563 36.9188 62.7008 37.5645 62.9763 38.1226C63.2519 38.6648 63.6328 39.0953 64.1191 39.4142C64.6053 39.7172 65.1645 39.8686 65.7967 39.8686ZM42.3425 35.6423V42.9402H38.9699V35.9179C38.9699 34.4604 38.0002 33.3581 36.2546 33.3581C34.6653 33.3581 33.534 34.4604 33.534 35.9497V42.9455H30.1668V30.5068H33.3993V31.9695C34.2128 30.7452 35.8775 30.3637 37.0574 30.3637C40.931 30.3637 42.3425 32.8493 42.3425 35.6423Z" fill="#CCCCCC"/>
</svg>
