<svg width="79" height="94" viewBox="0 0 79 94" fill="none" xmlns="http://www.w3.org/2000/svg">
<g filter="url(#filter0_d_2389_72969)">
<mask id="path-1-outside-1_2389_72969" maskUnits="userSpaceOnUse" x="21" y="19" width="37" height="52" fill="black">
<rect fill="white" x="21" y="19" width="37" height="52"/>
<path d="M39.6217 20C49.1855 20 56.9567 27.7547 56.9567 37.3184C56.9567 39.326 56.0356 42.0672 55.1807 44.1796C54.5133 45.8342 53.7081 47.4336 52.8091 48.9724L46.5105 59.7165L41.2105 68.8989C40.4408 70.2325 38.5159 70.2325 37.7462 68.8989L32.4462 59.7165L26.1476 48.9724C25.2431 47.4336 24.4433 45.8342 23.776 44.1796C22.9211 42.0672 22 39.326 22 37.3184C22 27.7547 29.8539 20 39.4177 20H39.6217Z"/>
</mask>
<path d="M39.6217 20C49.1855 20 56.9567 27.7547 56.9567 37.3184C56.9567 39.326 56.0356 42.0672 55.1807 44.1796C54.5133 45.8342 53.7081 47.4336 52.8091 48.9724L46.5105 59.7165L41.2105 68.8989C40.4408 70.2325 38.5159 70.2325 37.7462 68.8989L32.4462 59.7165L26.1476 48.9724C25.2431 47.4336 24.4433 45.8342 23.776 44.1796C22.9211 42.0672 22 39.326 22 37.3184C22 27.7547 29.8539 20 39.4177 20H39.6217Z" fill="url(#paint0_linear_2389_72969)"/>
<path d="M55.1807 44.1796L54.2537 43.8044L54.2533 43.8055L55.1807 44.1796ZM52.8091 48.9724L53.6718 49.4782L53.6725 49.4769L52.8091 48.9724ZM46.5105 59.7165L45.6478 59.2107L45.6444 59.2166L46.5105 59.7165ZM32.4462 59.7165L33.3123 59.2166L33.3089 59.2107L32.4462 59.7165ZM26.1476 48.9724L27.0103 48.4667L27.0097 48.4657L26.1476 48.9724ZM23.776 44.1796L24.7034 43.8055L24.7029 43.8044L23.776 44.1796ZM41.2105 68.8989L42.0766 69.3988L41.2105 68.8989ZM37.7462 68.8989L36.8801 69.3988L37.7462 68.8989ZM39.6217 21C48.6344 21 55.9567 28.3082 55.9567 37.3184H57.9567C57.9567 27.2011 49.7365 19 39.6217 19V21ZM55.9567 37.3184C55.9567 39.11 55.1106 41.6871 54.2537 43.8044L56.1077 44.5547C56.9606 42.4472 57.9567 39.542 57.9567 37.3184H55.9567ZM54.2533 43.8055C53.6066 45.409 52.8238 46.9649 51.9456 48.468L53.6725 49.4769C54.5924 47.9024 55.4201 46.2594 56.1081 44.5536L54.2533 43.8055ZM51.9464 48.4667L45.6478 59.2107L47.3732 60.2222L53.6718 49.4782L51.9464 48.4667ZM45.6444 59.2166L40.3444 68.399L42.0766 69.3988L47.3766 60.2164L45.6444 59.2166ZM38.6122 68.399L33.3123 59.2166L31.5801 60.2164L36.8801 69.3988L38.6122 68.399ZM33.3089 59.2107L27.0103 48.4667L25.2849 49.4782L31.5835 60.2222L33.3089 59.2107ZM27.0097 48.4657C26.128 46.9658 25.3507 45.4105 24.7034 43.8055L22.8486 44.5536C23.5359 46.2578 24.3581 47.9015 25.2855 49.4792L27.0097 48.4657ZM24.7029 43.8044C23.8461 41.6871 23 39.11 23 37.3184H21C21 39.542 21.9961 42.4472 22.849 44.5547L24.7029 43.8044ZM23 37.3184C23 28.3144 30.3988 21 39.4177 21V19C29.3091 19 21 27.195 21 37.3184H23ZM39.4177 21H39.6217V19H39.4177V21ZM40.3444 68.399C39.9595 69.0658 38.9971 69.0658 38.6122 68.399L36.8801 69.3988C38.0347 71.3992 40.922 71.3992 42.0766 69.3988L40.3444 68.399Z" fill="#38A3EB" mask="url(#path-1-outside-1_2389_72969)"/>
</g>
<circle cx="39.3739" cy="38.4765" r="7.22157" fill="white" stroke="#38A3EB"/>
<defs>
<filter id="filter0_d_2389_72969" x="0" y="0" width="78.957" height="93.8994" filterUnits="userSpaceOnUse" color-interpolation-filters="sRGB">
<feFlood flood-opacity="0" result="BackgroundImageFix"/>
<feColorMatrix in="SourceAlpha" type="matrix" values="0 0 0 0 0 0 0 0 0 0 0 0 0 0 0 0 0 0 127 0" result="hardAlpha"/>
<feMorphology radius="3" operator="dilate" in="SourceAlpha" result="effect1_dropShadow_2389_72969"/>
<feOffset dy="2"/>
<feGaussianBlur stdDeviation="9"/>
<feComposite in2="hardAlpha" operator="out"/>
<feColorMatrix type="matrix" values="0 0 0 0 0 0 0 0 0 0 0 0 0 0 0 0 0 0 0.1 0"/>
<feBlend mode="normal" in2="BackgroundImageFix" result="effect1_dropShadow_2389_72969"/>
<feBlend mode="normal" in="SourceGraphic" in2="effect1_dropShadow_2389_72969" result="shape"/>
</filter>
<linearGradient id="paint0_linear_2389_72969" x1="31.4651" y1="-13.095" x2="64.0667" y2="-8.31531" gradientUnits="userSpaceOnUse">
<stop stop-color="#3AC8F4"/>
<stop offset="1" stop-color="#5E9BF3"/>
</linearGradient>
</defs>
</svg>
