<svg width="96" height="96" viewBox="0 0 96 96" fill="none" xmlns="http://www.w3.org/2000/svg">
<g clip-path="url(#clip0_3418_40793)">
<rect width="96" height="96" rx="48" fill="#D5F47A"/>
<path fill-rule="evenodd" clip-rule="evenodd" d="M47.9987 55.9998C58.308 55.9998 66.6654 47.6425 66.6654 37.3332C66.6654 27.0239 58.308 18.6665 47.9987 18.6665C37.6894 18.6665 29.332 27.0239 29.332 37.3332C29.332 47.6425 37.6894 55.9998 47.9987 55.9998Z" fill="#616161"/>
<path fill-rule="evenodd" clip-rule="evenodd" d="M85.3346 97.9998C85.3346 96.8392 85.2817 95.6909 85.178 94.5572C83.4404 75.5524 67.4593 60.6665 48.0013 60.6665C28.5433 60.6665 12.5622 75.5524 10.8246 94.5572C10.7209 95.6909 10.668 96.8392 10.668 97.9998H85.3346Z" fill="#616161"/>
</g>
<defs>
<clipPath id="clip0_3418_40793">
<rect width="96" height="96" rx="48" fill="white"/>
</clipPath>
</defs>
</svg>
