<svg xmlns="http://www.w3.org/2000/svg" width="22" height="22" viewBox="0 0 22 22" fill="none">
  <circle cx="11" cy="5" r="3.25" stroke="#1A1A1A" stroke-width="1.5"/>
  <path d="M3.78889 17.25H3.78832C4.16362 13.5983 7.24918 10.75 11 10.75C14.7508 10.75 17.8364 13.5983 18.2117 17.25H18.2111H18.2005H18.1899H18.1792H18.1685H18.1576H18.1468H18.1358H18.1248H18.1137H18.1026H18.0914H18.0801H18.0688H18.0574H18.046H18.0344H18.0229H18.0112H17.9995H17.9878H17.9759H17.9641H17.9521H17.9401H17.928H17.9159H17.9037H17.8914H17.8791H17.8667H17.8543H17.8418H17.8293H17.8166H17.804H17.7912H17.7784H17.7656H17.7526H17.7397H17.7266H17.7135H17.7004H17.6872H17.6739H17.6606H17.6472H17.6337H17.6202H17.6067H17.593H17.5793H17.5656H17.5518H17.538H17.524H17.5101H17.496H17.482H17.4678H17.4536H17.4394H17.4251H17.4107H17.3963H17.3818H17.3672H17.3526H17.338H17.3233H17.3085H17.2937H17.2788H17.2639H17.2489H17.2339H17.2188H17.2036H17.1884H17.1732H17.1579H17.1425H17.1271H17.1116H17.0961H17.0805H17.0649H17.0492H17.0334H17.0176H17.0018H16.9859H16.9699H16.9539H16.9379H16.9217H16.9056H16.8894H16.8731H16.8568H16.8404H16.824H16.8075H16.7909H16.7744H16.7577H16.741H16.7243H16.7075H16.6907H16.6738H16.6569H16.6399H16.6228H16.6057H16.5886H16.5714H16.5542H16.5369H16.5195H16.5021H16.4847H16.4672H16.4497H16.4321H16.4144H16.3968H16.379H16.3612H16.3434H16.3255H16.3076H16.2896H16.2716H16.2535H16.2354H16.2172H16.199H16.1808H16.1625H16.1441H16.1257H16.1072H16.0887H16.0702H16.0516H16.033H16.0143H15.9956H15.9768H15.958H15.9391H15.9202H15.9012H15.8822H15.8632H15.8441H15.8249H15.8058H15.7865H15.7673H15.7479H15.7286H15.7092H15.6897H15.6702H15.6507H15.6311H15.6115H15.5918H15.5721H15.5523H15.5325H15.5127H15.4928H15.4729H15.4529H15.4329H15.4128H15.3927H15.3726H15.3524H15.3322H15.3119H15.2916H15.2713H15.2509H15.2304H15.21H15.1894H15.1689H15.1483H15.1277H15.107H15.0863H15.0655H15.0447H15.0239H15.003H14.9821H14.9611H14.9401H14.9191H14.898H14.8769H14.8557H14.8345H14.8133H14.792H14.7707H14.7493H14.728H14.7065H14.6851H14.6636H14.642H14.6204H14.5988H14.5772H14.5555H14.5337H14.512H14.4902H14.4683H14.4465H14.4245H14.4026H14.3806H14.3586H14.3365H14.3144H14.2923H14.2701H14.2479H14.2257H14.2034H14.1811H14.1588H14.1364H14.114H14.0915H14.069H14.0465H14.024H14.0014H13.9787H13.9561H13.9334H13.9107H13.8879H13.8651H13.8423H13.8194H13.7966H13.7736H13.7507H13.7277H13.7047H13.6816H13.6585H13.6354H13.6122H13.5891H13.5658H13.5426H13.5193H13.496H13.4726H13.4493H13.4259H13.4024H13.379H13.3555H13.3319H13.3084H13.2848H13.2611H13.2375H13.2138H13.1901H13.1664H13.1426H13.1188H13.0949H13.0711H13.0472H13.0233H12.9993H12.9753H12.9513H12.9273H12.9032H12.8791H12.855H12.8309H12.8067H12.7825H12.7583H12.734H12.7097H12.6854H12.661H12.6367H12.6123H12.5879H12.5634H12.5389H12.5144H12.4899H12.4653H12.4407H12.4161H12.3915H12.3668H12.3421H12.3174H12.2927H12.2679H12.2431H12.2183H12.1935H12.1686H12.1437H12.1188H12.0939H12.0689H12.0439H12.0189H11.9939H11.9688H11.9437H11.9186H11.8935H11.8683H11.8432H11.818H11.7927H11.7675H11.7422H11.7169H11.6916H11.6663H11.6409H11.6155H11.5901H11.5647H11.5392H11.5138H11.4883H11.4628H11.4372H11.4117H11.3861H11.3605H11.3349H11.3092H11.2836H11.2579H11.2322H11.2065H11.1807H11.155H11.1292H11.1034H11.0776H11.0517H11.0259H11H10.9741H10.9483H10.9224H10.8966H10.8708H10.845H10.8193H10.7935H10.7678H10.7421H10.7164H10.6908H10.6651H10.6395H10.6139H10.5883H10.5628H10.5372H10.5117H10.4862H10.4608H10.4353H10.4099H10.3845H10.3591H10.3337H10.3084H10.2831H10.2578H10.2325H10.2073H10.182H10.1568H10.1317H10.1065H10.0814H10.0563H10.0312H10.0061H9.98109H9.95608H9.93109H9.90613H9.88119H9.85627H9.83138H9.80652H9.78168H9.75686H9.73207H9.70731H9.68257H9.65786H9.63317H9.6085H9.58387H9.55926H9.53467H9.51011H9.48558H9.46108H9.4366H9.41215H9.38772H9.36332H9.33895H9.31461H9.29029H9.266H9.24174H9.21751H9.1933H9.16913H9.14498H9.12085H9.09676H9.0727H9.04866H9.02465H9.00068H8.97673H8.95281H8.92891H8.90505H8.88122H8.85742H8.83364H8.8099H8.78619H8.76251H8.73885H8.71523H8.69164H8.66808H8.64455H8.62104H8.59758H8.57414H8.55073H8.52735H8.50401H8.4807H8.45742H8.43417H8.41095H8.38776H8.36461H8.34149H8.3184H8.29535H8.27232H8.24933H8.22637H8.20345H8.18056H8.1577H8.13487H8.11208H8.08933H8.0666H8.04391H8.02126H7.99863H7.97605H7.95349H7.93097H7.90849H7.88604H7.86362H7.84124H7.8189H7.79659H7.77432H7.75208H7.72987H7.70771H7.68558H7.66348H7.64142H7.6194H7.59741H7.57546H7.55355H7.53167H7.50983H7.48803H7.46626H7.44453H7.42284H7.40118H7.37957H7.35799H7.33645H7.31494H7.29348H7.27205H7.25066H7.22931H7.208H7.18673H7.16549H7.14429H7.12314H7.10202H7.08094H7.0599H7.0389H7.01794H6.99702H6.97614H6.9553H6.9345H6.91375H6.89303H6.87235H6.85171H6.83111H6.81056H6.79004H6.76957H6.74913H6.72874H6.70839H6.68808H6.66781H6.64759H6.62741H6.60726H6.58717H6.56711H6.5471H6.52712H6.5072H6.48731H6.46747H6.44767H6.42791H6.4082H6.38853H6.3689H6.34932H6.32978H6.31028H6.29083H6.27143H6.25206H6.23275H6.21347H6.19424H6.17506H6.15592H6.13683H6.11778H6.09877H6.07982H6.0609H6.04204H6.02322H6.00444H5.98571H5.96703H5.94839H5.9298H5.91126H5.89276H5.87431H5.85591H5.83755H5.81924H5.80098H5.78276H5.7646H5.74648H5.7284H5.71038H5.6924H5.67447H5.6566H5.63876H5.62098H5.60325H5.58556H5.56792H5.55034H5.5328H5.51531H5.49787H5.48048H5.46314H5.44584H5.4286H5.41141H5.39427H5.37718H5.36014H5.34315H5.32621H5.30932H5.29248H5.27569H5.25895H5.24227H5.22563H5.20905H5.19252H5.17604H5.15961H5.14324H5.12691H5.11064H5.09442H5.07826H5.06214H5.04608H5.03007H5.01411H4.99821H4.98236H4.96656H4.95082H4.93513H4.91949H4.90391H4.88838H4.87291H4.85749H4.84212H4.82681H4.81155H4.79635H4.7812H4.76611H4.75107H4.73609H4.72116H4.70629H4.69147H4.67671H4.662H4.64736H4.63276H4.61822H4.60374H4.58932H4.57495H4.56064H4.54638H4.53218H4.51804H4.50396H4.48993H4.47596H4.46204H4.44819H4.43439H4.42065H4.40697H4.39335H4.37978H4.36627H4.35283H4.33944H4.3261H4.31283H4.29962H4.28646H4.27337H4.26033H4.24735H4.23444H4.22158H4.20878H4.19604H4.18336H4.17074H4.15819H4.14569H4.13325H4.12088H4.10856H4.09631H4.08411H4.07198H4.05991H4.0479H4.03595H4.02406H4.01224H4.00047H3.98877H3.97713H3.96556H3.95404H3.94259H3.9312H3.91987H3.90861H3.89741H3.88627H3.8752H3.86418H3.85324H3.84235H3.83153H3.82077H3.81008H3.79945H3.78889Z" stroke="#1A1A1A" stroke-width="1.5"/>
</svg>