<svg width="22" height="22" viewBox="0 0 22 22" fill="none" xmlns="http://www.w3.org/2000/svg">
<g clip-path="url(#clip0_4345_26456)">
<path d="M12.4292 4.73337L11.0719 4.78419C10.5677 4.80307 10.0893 5.01181 9.7325 5.36858L3.92356 11.1775C3.14251 11.9586 3.14251 13.2249 3.92356 14.0059L7.59342 17.6758C8.39838 18.4808 9.71194 18.4525 10.4815 17.6136L10.5809 17.5051" stroke="black" stroke-width="1.5" stroke-linecap="round"/>
<path d="M12.5687 5.95681C12.789 5.73652 13.0836 5.60643 13.3948 5.59203L18.9392 5.33544C19.0862 5.32863 19.2073 5.4497 19.2005 5.59673L18.9439 11.1411C18.9295 11.4523 18.7994 11.7469 18.5791 11.9672L12.763 17.7833C12.2748 18.2715 11.4834 18.2715 10.9952 17.7833L6.75256 13.5407C6.26441 13.0526 6.26441 12.2611 6.75256 11.7729L12.5687 5.95681Z" stroke="black" stroke-width="1.5"/>
<circle cx="15.5" cy="9.03564" r="1.5" fill="black"/>
</g>
<defs>
<clipPath id="clip0_4345_26456">
<rect width="18" height="18" fill="white" transform="translate(2 2)"/>
</clipPath>
</defs>
</svg>
