<svg width="16" height="16" viewBox="0 0 16 16" fill="none" xmlns="http://www.w3.org/2000/svg">
<rect width="16" height="16" rx="8" fill="#FF7456"/>
<path d="M8.45117 9.48633H7.14453C7.14844 9.12305 7.17969 8.81836 7.23828 8.57227C7.29688 8.32227 7.39453 8.0957 7.53125 7.89258C7.67188 7.68945 7.85742 7.47461 8.08789 7.24805C8.26758 7.07617 8.42969 6.91406 8.57422 6.76172C8.71875 6.60547 8.83398 6.44141 8.91992 6.26953C9.00586 6.09375 9.04883 5.89258 9.04883 5.66602C9.04883 5.41992 9.00781 5.21094 8.92578 5.03906C8.84375 4.86719 8.72266 4.73633 8.5625 4.64648C8.40625 4.55664 8.21094 4.51172 7.97656 4.51172C7.78125 4.51172 7.59766 4.55078 7.42578 4.62891C7.25391 4.70312 7.11523 4.82031 7.00977 4.98047C6.9043 5.13672 6.84766 5.34375 6.83984 5.60156H5.42773C5.43555 5.10938 5.55273 4.69531 5.7793 4.35938C6.00586 4.02344 6.31055 3.77148 6.69336 3.60352C7.07617 3.43555 7.50391 3.35156 7.97656 3.35156C8.5 3.35156 8.94727 3.44141 9.31836 3.62109C9.68945 3.79688 9.97266 4.05469 10.168 4.39453C10.3672 4.73047 10.4668 5.13672 10.4668 5.61328C10.4668 5.95703 10.3984 6.26953 10.2617 6.55078C10.125 6.82812 9.94727 7.08789 9.72852 7.33008C9.50977 7.56836 9.27344 7.80664 9.01953 8.04492C8.80078 8.24414 8.65234 8.46094 8.57422 8.69531C8.49609 8.92578 8.45508 9.18945 8.45117 9.48633ZM7.02734 11.3145C7.02734 11.1035 7.09961 10.9258 7.24414 10.7812C7.38867 10.6328 7.58594 10.5586 7.83594 10.5586C8.08594 10.5586 8.2832 10.6328 8.42773 10.7812C8.57227 10.9258 8.64453 11.1035 8.64453 11.3145C8.64453 11.5254 8.57227 11.7051 8.42773 11.8535C8.2832 11.998 8.08594 12.0703 7.83594 12.0703C7.58594 12.0703 7.38867 11.998 7.24414 11.8535C7.09961 11.7051 7.02734 11.5254 7.02734 11.3145Z" fill="white"/>
</svg>
