<svg width="22" height="22" viewBox="0 0 22 22" fill="none" xmlns="http://www.w3.org/2000/svg">
<path fill-rule="evenodd" clip-rule="evenodd" d="M3.78516 2.25H3.03516V3V19V19.75H3.78516H17.3814H18.1314V19V15.1111H16.6314V18.25H4.53516V3.75H16.6314V7.5H18.1314V3V2.25H17.3814H3.78516ZM14.0833 15.5239L18.964 10.5239L17.8906 9.47611L13.5642 13.9083L11.6595 11.827L10.5529 12.8397L12.9933 15.5063L13.529 16.0917L14.0833 15.5239ZM15.0008 7H6.00076V6H15.0008V7ZM6.00076 10H15.0008V9H6.00076V10ZM10.0008 13H6.00076V12H10.0008V13ZM6.00076 16H10.0008V15H6.00076V16Z" fill="#1A1A1A"/>
</svg>
