<svg width="18" height="18" viewBox="0 0 18 18" fill="none" xmlns="http://www.w3.org/2000/svg">
<circle cx="9" cy="5" r="3.25" stroke="#616161" stroke-width="1.5"/>
<path d="M1.78889 17.25H1.78832C2.16362 13.5983 5.24918 10.75 9 10.75C12.7508 10.75 15.8364 13.5983 16.2117 17.25H16.2111H16.2005H16.1899H16.1792H16.1685H16.1576H16.1468H16.1358H16.1248H16.1137H16.1026H16.0914H16.0801H16.0688H16.0574H16.046H16.0344H16.0229H16.0112H15.9995H15.9878H15.9759H15.9641H15.9521H15.9401H15.928H15.9159H15.9037H15.8914H15.8791H15.8667H15.8543H15.8418H15.8293H15.8166H15.804H15.7912H15.7784H15.7656H15.7526H15.7397H15.7266H15.7135H15.7004H15.6872H15.6739H15.6606H15.6472H15.6337H15.6202H15.6067H15.593H15.5793H15.5656H15.5518H15.538H15.524H15.5101H15.496H15.482H15.4678H15.4536H15.4394H15.4251H15.4107H15.3963H15.3818H15.3672H15.3526H15.338H15.3233H15.3085H15.2937H15.2788H15.2639H15.2489H15.2339H15.2188H15.2036H15.1884H15.1732H15.1579H15.1425H15.1271H15.1116H15.0961H15.0805H15.0649H15.0492H15.0334H15.0176H15.0018H14.9859H14.9699H14.9539H14.9379H14.9217H14.9056H14.8894H14.8731H14.8568H14.8404H14.824H14.8075H14.7909H14.7744H14.7577H14.741H14.7243H14.7075H14.6907H14.6738H14.6569H14.6399H14.6228H14.6057H14.5886H14.5714H14.5542H14.5369H14.5195H14.5021H14.4847H14.4672H14.4497H14.4321H14.4144H14.3968H14.379H14.3612H14.3434H14.3255H14.3076H14.2896H14.2716H14.2535H14.2354H14.2172H14.199H14.1808H14.1625H14.1441H14.1257H14.1072H14.0887H14.0702H14.0516H14.033H14.0143H13.9956H13.9768H13.958H13.9391H13.9202H13.9012H13.8822H13.8632H13.8441H13.8249H13.8058H13.7865H13.7673H13.7479H13.7286H13.7092H13.6897H13.6702H13.6507H13.6311H13.6115H13.5918H13.5721H13.5523H13.5325H13.5127H13.4928H13.4729H13.4529H13.4329H13.4128H13.3927H13.3726H13.3524H13.3322H13.3119H13.2916H13.2713H13.2509H13.2304H13.21H13.1894H13.1689H13.1483H13.1277H13.107H13.0863H13.0655H13.0447H13.0239H13.003H12.9821H12.9611H12.9401H12.9191H12.898H12.8769H12.8557H12.8345H12.8133H12.792H12.7707H12.7493H12.728H12.7065H12.6851H12.6636H12.642H12.6204H12.5988H12.5772H12.5555H12.5337H12.512H12.4902H12.4683H12.4465H12.4245H12.4026H12.3806H12.3586H12.3365H12.3144H12.2923H12.2701H12.2479H12.2257H12.2034H12.1811H12.1588H12.1364H12.114H12.0915H12.069H12.0465H12.024H12.0014H11.9787H11.9561H11.9334H11.9107H11.8879H11.8651H11.8423H11.8194H11.7966H11.7736H11.7507H11.7277H11.7047H11.6816H11.6585H11.6354H11.6122H11.5891H11.5658H11.5426H11.5193H11.496H11.4726H11.4493H11.4259H11.4024H11.379H11.3555H11.3319H11.3084H11.2848H11.2611H11.2375H11.2138H11.1901H11.1664H11.1426H11.1188H11.0949H11.0711H11.0472H11.0233H10.9993H10.9753H10.9513H10.9273H10.9032H10.8791H10.855H10.8309H10.8067H10.7825H10.7583H10.734H10.7097H10.6854H10.661H10.6367H10.6123H10.5879H10.5634H10.5389H10.5144H10.4899H10.4653H10.4407H10.4161H10.3915H10.3668H10.3421H10.3174H10.2927H10.2679H10.2431H10.2183H10.1935H10.1686H10.1437H10.1188H10.0939H10.0689H10.0439H10.0189H9.99387H9.96881H9.94373H9.91862H9.89349H9.86833H9.84315H9.81795H9.79273H9.76748H9.74221H9.71692H9.6916H9.66627H9.64091H9.61552H9.59012H9.56469H9.53924H9.51377H9.48828H9.46277H9.43723H9.41168H9.3861H9.3605H9.33489H9.30925H9.28359H9.25791H9.2322H9.20648H9.18074H9.15498H9.1292H9.1034H9.07758H9.05174H9.02588H9H8.97412H8.94826H8.92242H8.8966H8.8708H8.84502H8.81926H8.79352H8.7678H8.74209H8.71641H8.69075H8.66511H8.6395H8.6139H8.58832H8.56277H8.53723H8.51172H8.48623H8.46076H8.43531H8.40988H8.38448H8.35909H8.33373H8.3084H8.28308H8.25779H8.23252H8.20727H8.18205H8.15685H8.13167H8.10651H8.08138H8.05627H8.03119H8.00613H7.98109H7.95608H7.93109H7.90613H7.88119H7.85627H7.83138H7.80652H7.78168H7.75686H7.73207H7.70731H7.68257H7.65786H7.63317H7.6085H7.58387H7.55926H7.53467H7.51011H7.48558H7.46108H7.4366H7.41215H7.38772H7.36332H7.33895H7.31461H7.29029H7.266H7.24174H7.21751H7.1933H7.16913H7.14498H7.12085H7.09676H7.0727H7.04866H7.02465H7.00068H6.97673H6.95281H6.92891H6.90505H6.88122H6.85742H6.83364H6.8099H6.78619H6.76251H6.73885H6.71523H6.69164H6.66808H6.64455H6.62104H6.59758H6.57414H6.55073H6.52735H6.50401H6.4807H6.45742H6.43417H6.41095H6.38776H6.36461H6.34149H6.3184H6.29535H6.27232H6.24933H6.22637H6.20345H6.18056H6.1577H6.13487H6.11208H6.08933H6.0666H6.04391H6.02126H5.99863H5.97605H5.95349H5.93097H5.90849H5.88604H5.86362H5.84124H5.8189H5.79659H5.77432H5.75208H5.72987H5.70771H5.68558H5.66348H5.64142H5.6194H5.59741H5.57546H5.55355H5.53167H5.50983H5.48803H5.46626H5.44453H5.42284H5.40118H5.37957H5.35799H5.33645H5.31494H5.29348H5.27205H5.25066H5.22931H5.208H5.18673H5.16549H5.14429H5.12314H5.10202H5.08094H5.0599H5.0389H5.01794H4.99702H4.97614H4.9553H4.9345H4.91375H4.89303H4.87235H4.85171H4.83111H4.81056H4.79004H4.76957H4.74913H4.72874H4.70839H4.68808H4.66781H4.64759H4.62741H4.60726H4.58717H4.56711H4.5471H4.52712H4.5072H4.48731H4.46747H4.44767H4.42791H4.4082H4.38853H4.3689H4.34932H4.32978H4.31028H4.29083H4.27143H4.25206H4.23275H4.21347H4.19424H4.17506H4.15592H4.13683H4.11778H4.09877H4.07982H4.0609H4.04204H4.02322H4.00444H3.98571H3.96703H3.94839H3.9298H3.91126H3.89276H3.87431H3.85591H3.83755H3.81924H3.80098H3.78276H3.7646H3.74648H3.7284H3.71038H3.6924H3.67447H3.6566H3.63876H3.62098H3.60325H3.58556H3.56792H3.55034H3.5328H3.51531H3.49787H3.48048H3.46314H3.44584H3.4286H3.41141H3.39427H3.37718H3.36014H3.34315H3.32621H3.30932H3.29248H3.27569H3.25895H3.24227H3.22563H3.20905H3.19252H3.17604H3.15961H3.14324H3.12691H3.11064H3.09442H3.07826H3.06214H3.04608H3.03007H3.01411H2.99821H2.98236H2.96656H2.95082H2.93513H2.91949H2.90391H2.88838H2.87291H2.85749H2.84212H2.82681H2.81155H2.79635H2.7812H2.76611H2.75107H2.73609H2.72116H2.70629H2.69147H2.67671H2.662H2.64736H2.63276H2.61822H2.60374H2.58932H2.57495H2.56064H2.54638H2.53218H2.51804H2.50396H2.48993H2.47596H2.46204H2.44819H2.43439H2.42065H2.40697H2.39335H2.37978H2.36627H2.35283H2.33944H2.3261H2.31283H2.29962H2.28646H2.27337H2.26033H2.24735H2.23444H2.22158H2.20878H2.19604H2.18336H2.17074H2.15819H2.14569H2.13325H2.12088H2.10856H2.09631H2.08411H2.07198H2.05991H2.0479H2.03595H2.02406H2.01224H2.00047H1.98877H1.97713H1.96556H1.95404H1.94259H1.9312H1.91987H1.90861H1.89741H1.88627H1.8752H1.86418H1.85324H1.84235H1.83153H1.82077H1.81008H1.79945H1.78889Z" stroke="#616161" stroke-width="1.5"/>
</svg>
