<svg width="18" height="18" viewBox="0 0 18 18" fill="none" xmlns="http://www.w3.org/2000/svg">
<path fill-rule="evenodd" clip-rule="evenodd" d="M15.6946 3.56642H2.30539L2.30539 16.7133H15.6946V3.56642ZM2.30539 2.27979C1.58444 2.27979 1 2.85583 1 3.56642V16.7133C1 17.4239 1.58444 18 2.30539 18H15.6946C16.4156 18 17 17.4239 17 16.7133V3.56642C17 2.85583 16.4156 2.27979 15.6946 2.27979H2.30539Z" fill="#616161"/>
<path fill-rule="evenodd" clip-rule="evenodd" d="M16.5078 6.96445H1.49023V5.70215H16.5078V6.96445Z" fill="#616161"/>
<path d="M3.97266 8.95898H5.71006V10.751H3.97266V8.95898Z" fill="#616161"/>
<path d="M4.14258 1H5.87998V2.79206H4.14258V1Z" fill="#616161"/>
<path d="M11 1H12.7374V2.79206H11V1Z" fill="#616161"/>
<path d="M8 8.95898H9.7374V10.751H8V8.95898Z" fill="#616161"/>
<path d="M12 8.95898H13.7374V10.751H12V8.95898Z" fill="#616161"/>
</svg>
