<svg width="16" height="16" viewBox="0 0 16 16" fill="none" xmlns="http://www.w3.org/2000/svg">
<g id="Icon/Star">
<path id="Star 1" d="M7.77127 1.13781C7.85897 0.939028 8.14103 0.939027 8.22873 1.13781L9.8498 4.81224C9.95869 5.05905 10.1917 5.22837 10.4601 5.25566L14.4556 5.66193C14.6718 5.68391 14.759 5.95217 14.597 6.097L11.6034 8.77419C11.4023 8.95402 11.3133 9.22799 11.3702 9.49167L12.2185 13.4172C12.2644 13.6296 12.0362 13.7953 11.8484 13.6861L8.3772 11.6662C8.14403 11.5306 7.85597 11.5306 7.6228 11.6662L4.15155 13.6861C3.96376 13.7953 3.73557 13.6296 3.78146 13.4172L4.62976 9.49167C4.68674 9.22799 4.59772 8.95402 4.39664 8.77419L1.40299 6.097C1.24104 5.95217 1.3282 5.68391 1.54436 5.66193L5.53988 5.25566C5.80826 5.22837 6.04131 5.05905 6.1502 4.81224L7.77127 1.13781Z" fill="#FFCC4D" stroke="#FFCC4D" stroke-width="0.5"/>
</g>
</svg>
