<svg xmlns="http://www.w3.org/2000/svg" width="14" height="18" viewBox="0 0 14 18" fill="none">
  <g clip-path="url(#clip0_2618_14425)">
    <path d="M9 0.75H4.5V2.25H9V0.75ZM6 10.5H7.5V6H6V10.5ZM12.0225 5.5425L13.0875 4.4775C12.765 4.095 12.4125 3.735 12.03 3.42L10.965 4.485C9.8025 3.555 8.34 3 6.75 3C3.0225 3 0 6.0225 0 9.75C0 13.4775 3.015 16.5 6.75 16.5C10.485 16.5 13.5 13.4775 13.5 9.75C13.5 8.16 12.945 6.6975 12.0225 5.5425ZM6.75 15C3.8475 15 1.5 12.6525 1.5 9.75C1.5 6.8475 3.8475 4.5 6.75 4.5C9.6525 4.5 12 6.8475 12 9.75C12 12.6525 9.6525 15 6.75 15Z" fill="#9C9C9C"/>
  </g>
  <defs>
    <clipPath id="clip0_2618_14425">
      <rect width="14" height="18" fill="white"/>
    </clipPath>
  </defs>
</svg>