<svg width="19" height="18" viewBox="0 0 19 18" fill="none" xmlns="http://www.w3.org/2000/svg">
<g clip-path="url(#clip0_4345_41388)">
<path d="M13.4531 9.5H17.7865" stroke="#DE2E5F"/>
<path d="M15.5 12L17.5 9.5L15.5 7" stroke="#DE2E5F"/>
<path d="M14.1016 6.89815C13.7086 6.03706 13.1267 5.27332 12.4059 4.6551C11.2059 3.62585 9.62132 3 7.88417 3C4.13824 3 1.10156 5.91015 1.10156 9.5C1.10156 13.0899 4.13824 16 7.88417 16C9.62132 16 11.2059 15.3742 12.4059 14.3449C13.1267 13.7267 13.7086 12.9629 14.1016 12.1019" stroke="#DE2E5F" stroke-linecap="round"/>
<path d="M5.28278 13.3999L3.73438 6.8999H5.04147L6.00671 11.4726H6.05699L7.03228 6.8999H8.32933L9.31468 11.4487H9.36495L10.3201 6.8999H11.6272L10.0788 13.3999H8.74156L7.71599 8.99475H7.64561L6.62004 13.3999H5.28278Z" fill="#DE2E5F"/>
<path d="M3.73438 9.5H11.6272" stroke="#DE2E5F" stroke-linejoin="round"/>
</g>
<defs>
<clipPath id="clip0_4345_41388">
<rect width="18" height="18" fill="white" transform="translate(0.5)"/>
</clipPath>
</defs>
</svg>
