<svg width="14" height="14" viewBox="0 0 14 14" fill="none" xmlns="http://www.w3.org/2000/svg">
<rect width="14" height="14" rx="3" fill="url(#paint0_linear_1890_5757)"/>
<path d="M5.8463 4.05545L4.64615 6.96832L3.41502 4.05545H2L3.99961 8.41188L2.85753 11H4.22222L7.2652 4.05545H5.8463ZM12 6.54852V8.70099H10.9063V8.22178C10.5501 8.58614 10.0875 8.80792 9.59195 8.80792C8.28146 8.80792 7.22067 7.73267 7.22067 6.40396C7.22067 5.07525 8.28339 4 9.59195 4C10.9005 4 12 5.04753 12 6.54852ZM10.7708 6.4099C10.7708 5.7505 10.2424 5.21386 9.59195 5.21386C8.94154 5.21386 8.41309 5.74852 8.41309 6.4099C8.41309 7.07129 8.94154 7.60594 9.59195 7.60594C10.2424 7.60594 10.7708 7.07129 10.7708 6.4099Z" fill="white"/>
<defs>
<linearGradient id="paint0_linear_1890_5757" x1="7" y1="0" x2="7" y2="14" gradientUnits="userSpaceOnUse">
<stop stop-color="#FF5869"/>
<stop offset="1" stop-color="#FE1C75"/>
</linearGradient>
</defs>
</svg>
