<svg width="16px" height="16px" viewBox="0 0 16 16" fill="none" xmlns="http://www.w3.org/2000/svg">
<rect width="16px" height="16px" rx="3" fill="url(#paint0_linear_1841_19015)"/>
<path d="M6.68191 4.63466L5.3103 7.96365L3.9033 4.63466H2.28613L4.5714 9.61344L3.26617 12.5713H4.82582L8.3035 4.63466H6.68191ZM13.7147 7.48388V9.94385H12.4648V9.39618C12.0577 9.81259 11.529 10.0661 10.9626 10.0661C9.46494 10.0661 8.25262 8.8372 8.25262 7.31867C8.25262 5.80014 9.46715 4.57129 10.9626 4.57129C12.4581 4.57129 13.7147 5.76846 13.7147 7.48388ZM12.3099 7.32546C12.3099 6.57185 11.706 5.95856 10.9626 5.95856C10.2193 5.95856 9.61537 6.56959 9.61537 7.32546C9.61537 8.08133 10.2193 8.69236 10.9626 8.69236C11.706 8.69236 12.3099 8.08133 12.3099 7.32546Z" fill="white"/>
<defs>
<linearGradient id="paint0_linear_1841_19015" x1="8" y1="0" x2="8" y2="16" gradientUnits="userSpaceOnUse">
<stop stop-color="#FF5869"/>
<stop offset="1" stop-color="#FE1C75"/>
</linearGradient>
</defs>
</svg>
