<svg xmlns="http://www.w3.org/2000/svg" width="8" height="10" viewBox="0 0 8 10" fill="none">
  <path fill-rule="evenodd" clip-rule="evenodd" d="M4.77476 9.60538C5.74711 7.86308 7.44401 4.63483 7.44401 3.32472C7.44401 1.48853 5.95163 0 4.11068 0C2.26973 0 0.777344 1.48853 0.777344 3.32472C0.777344 4.63483 2.47424 7.86308 3.4466 9.60538C3.74024 10.1315 4.48111 10.1315 4.77476 9.60538ZM4.11067 4.59722C4.77276 4.59722 5.30949 4.06188 5.30949 3.4015C5.30949 2.74112 4.77276 2.20578 4.11067 2.20578C3.44858 2.20578 2.91186 2.74112 2.91186 3.4015C2.91186 4.06188 3.44858 4.59722 4.11067 4.59722Z" fill="white"/>
</svg>