<svg width="360" height="392" viewBox="0 0 360 392" fill="none" xmlns="http://www.w3.org/2000/svg">
<g clip-path="url(#clip0_4409_50764)">
<g filter="url(#filter0_d_4409_50764)">
<rect width="114.617" height="114.617" rx="20.5883" transform="matrix(0.965926 -0.258819 0.25882 0.965926 163.522 104.489)" fill="url(#paint0_linear_4409_50764)"/>
</g>
<g filter="url(#filter1_d_4409_50764)">
<path d="M233.209 143.209V150.779H229.723V143.495C229.723 141.983 228.721 140.84 226.917 140.84C225.275 140.84 224.105 141.983 224.105 143.528V150.785H220.625V137.883H223.966V139.4C224.807 138.13 226.527 137.734 227.747 137.734C231.75 137.734 233.209 140.312 233.209 143.209ZM200.169 137.888L196.717 145.975L193.176 137.888H189.105L194.857 149.982L191.572 157.167H195.497L204.25 137.888H200.169ZM249.038 144.424C249.038 148.107 245.982 151.098 242.218 151.098C238.454 151.098 235.397 148.113 235.397 144.424C235.397 140.736 238.454 137.751 242.218 137.751C245.982 137.751 249.038 140.736 249.038 144.424ZM245.609 144.424C245.609 142.594 244.089 141.104 242.212 141.104C240.336 141.104 238.821 142.588 238.821 144.424C238.821 146.26 240.341 147.745 242.212 147.745C244.083 147.745 245.609 146.26 245.609 144.424ZM217.869 144.809V150.785H214.723V149.454C213.699 150.466 212.368 151.081 210.943 151.081C207.173 151.081 204.122 148.096 204.122 144.408C204.122 140.719 207.179 137.734 210.943 137.734C214.707 137.734 217.869 140.642 217.869 144.809ZM214.334 144.424C214.334 142.594 212.814 141.104 210.943 141.104C209.072 141.104 207.552 142.588 207.552 144.424C207.552 146.26 209.072 147.745 210.943 147.745C212.814 147.745 214.334 146.26 214.334 144.424ZM277.073 144.809V150.785H273.927V149.454C272.902 150.466 271.577 151.081 270.146 151.081C266.377 151.081 263.326 148.096 263.326 144.408C263.326 140.719 266.382 137.734 270.146 137.734C273.91 137.734 277.073 140.642 277.073 144.809ZM273.537 144.424C273.537 142.594 272.017 141.104 270.141 141.104C268.264 141.104 266.75 142.588 266.75 144.424C266.75 146.26 268.27 147.745 270.141 147.745C272.012 147.745 273.537 146.26 273.537 144.424ZM251.254 150.779H254.801V132.066H251.254V150.779ZM257.652 150.598C257.652 152.989 256.182 153.775 254.829 153.775V157.2C256.85 157.2 261.137 156.639 261.16 150.664V137.883H257.646V150.598H257.652Z" fill="url(#paint1_linear_4409_50764)"/>
</g>
<mask id="mask0_4409_50764" style="mask-type:luminance" maskUnits="userSpaceOnUse" x="-110" y="26" width="515" height="366">
<path d="M404.401 26.3994H-109.199V391.199H404.401V26.3994Z" fill="white"/>
</mask>
<g mask="url(#mask0_4409_50764)">
<g opacity="0.763677">
<path d="M277.205 294.844L281.84 275.999L286.928 277.257L282.293 296.102L277.205 294.844Z" fill="#44CD21"/>
</g>
<g opacity="0.763677">
<path d="M199.943 119.931L194.403 103.902L199.882 102L205.422 118.029L199.943 119.931Z" fill="#FFB52F"/>
</g>
<g opacity="0.914818">
<path d="M23.9869 193.691L19.2021 191.529L27.0961 174.002L31.8809 176.164L23.9869 193.691Z" fill="#FFB52F"/>
</g>
<g opacity="0.763677">
<path d="M40.2824 152.988L34.4033 135.977L40.5652 133.838L46.4443 150.85L40.2824 152.988Z" fill="#BF2FFF"/>
</g>
<g opacity="0.914818">
<path d="M271.002 76.5313L264.002 58.8537L270.178 56.3985L277.178 74.0762L271.002 76.5313Z" fill="#BF2FFF"/>
</g>
<g opacity="0.850533">
<path d="M241.991 196.714L229.397 178.041L233.039 175.578L245.632 194.251L241.991 196.714Z" fill="#70D955"/>
</g>
<g opacity="0.763677">
<path d="M79.6797 290.631L78.0024 285.779L102.734 277.197L104.411 282.049L79.6797 290.631Z" fill="#44CD21"/>
</g>
<g opacity="0.763677">
<path d="M315.125 160.575L310.801 141.267L314.655 140.401L318.979 159.709L315.125 160.575Z" fill="#FF2F4A"/>
</g>
<g opacity="0.914818">
<path d="M197.148 291.915L183.601 277.509L186.474 274.799L200.021 289.205L197.148 291.915Z" fill="#FFBC41"/>
</g>
<g opacity="0.763677">
<path d="M334.049 56.3106L316.801 46.6481L318.726 43.2007L335.974 52.8633L334.049 56.3106Z" fill="#70D955"/>
</g>
<g opacity="0.983243">
<path d="M31.1109 280.745L29.3901 292.529L21.6034 291.384L23.3242 279.601L31.1109 280.745Z" fill="#FF3F2F"/>
</g>
<g opacity="0.763677">
<path d="M286.804 233.645L291.44 214.8L296.528 216.057L291.893 234.902L286.804 233.645Z" fill="#FFBC41"/>
</g>
<g opacity="0.914818">
<path d="M338.74 261.417L325.2 249.445L330.353 243.6L343.893 255.571L338.74 261.417Z" fill="#BF2FFF"/>
</g>
<g opacity="0.763677">
<path d="M97.2053 102.464L101.747 83.9984L108.198 85.593L103.656 104.059L97.2053 102.464Z" fill="#BF2FFF"/>
</g>
<g opacity="0.850533">
<path d="M219.182 269.408L200.403 263.239L201.631 259.487L220.409 265.656L219.182 269.408Z" fill="#FF2F4A"/>
</g>
<g opacity="0.763677">
<path d="M306.358 63.3979L304.863 69.9362L300.541 68.9416L302.037 62.4033L306.358 63.3979Z" fill="#FF3F2F"/>
</g>
<g opacity="0.914818">
<path d="M219.565 67.0305L217.613 64.4062L230.981 54.4313L232.933 57.0557L219.565 67.0305Z" fill="#44CD21"/>
</g>
<g opacity="0.763677">
<path d="M129.507 71.3152L125.182 52.007L129.037 51.141L133.361 70.4492L129.507 71.3152Z" fill="#FF2F4A"/>
</g>
<g opacity="0.763677">
<path d="M34.0487 80.3097L16.8012 70.6471L18.7262 67.1997L35.9736 76.8623L34.0487 80.3097Z" fill="#FF2F4A"/>
</g>
</g>
<g filter="url(#filter2_b_4409_50764)">
<rect width="132.992" height="132.992" rx="27.1549" transform="matrix(0.866026 0.499999 -0.500001 0.866025 103.736 113.93)" fill="url(#paint2_linear_4409_50764)" fill-opacity="0.8"/>
<rect x="0.210193" y="0.784452" width="131.843" height="131.843" rx="26.5807" transform="matrix(0.866026 0.499999 -0.500001 0.866025 104.157 113.93)" stroke="url(#paint3_linear_4409_50764)" stroke-opacity="0.5" stroke-width="1.14852"/>
<g filter="url(#filter3_d_4409_50764)">
<g filter="url(#filter4_d_4409_50764)">
<path fill-rule="evenodd" clip-rule="evenodd" d="M163.739 212.225C164.748 212.867 165.873 213.188 167.116 213.188C167.782 213.188 168.412 213.097 169.006 212.913C169.619 212.711 170.159 212.445 170.627 212.115C171.001 211.847 171.316 211.557 171.573 211.246L171.654 212.913H175.273V192.548H171.464V199.921C171.243 199.677 170.991 199.449 170.708 199.235C170.222 198.868 169.664 198.584 169.033 198.382C168.421 198.162 167.782 198.052 167.116 198.052C165.855 198.052 164.73 198.382 163.739 199.043C162.749 199.703 161.966 200.602 161.389 201.74C160.831 202.877 160.552 204.18 160.552 205.648C160.552 207.097 160.831 208.4 161.389 209.556C161.966 210.693 162.749 211.583 163.739 212.225ZM169.844 209.391C169.322 209.758 168.691 209.941 167.953 209.941C167.251 209.941 166.629 209.758 166.089 209.391C165.549 209.024 165.126 208.519 164.82 207.877C164.532 207.235 164.388 206.492 164.388 205.648C164.388 204.785 164.532 204.033 164.82 203.391C165.126 202.731 165.549 202.226 166.089 201.877C166.629 201.51 167.251 201.327 167.953 201.327C168.691 201.327 169.322 201.51 169.844 201.877C170.384 202.226 170.807 202.731 171.113 203.391C171.419 204.033 171.573 204.785 171.573 205.648C171.573 206.492 171.419 207.235 171.113 207.877C170.807 208.519 170.384 209.024 169.844 209.391ZM74.6827 198.733L70.9819 207.722L67.1856 198.733H62.8223L68.9882 212.176L65.4665 220.163H69.6747L79.0579 198.733H74.6827ZM93.6581 206.426V213.068H90.2856V211.59C89.1873 212.714 87.7607 213.398 86.2327 213.398C82.1917 213.398 78.9207 210.08 78.9207 205.98C78.9207 201.88 82.1976 198.562 86.2327 198.562C90.2677 198.562 93.6581 201.794 93.6581 206.426ZM89.8678 205.998C89.8678 203.964 88.2383 202.308 86.2327 202.308C84.2271 202.308 82.5976 203.958 82.5976 205.998C82.5976 208.039 84.2271 209.689 86.2327 209.689C88.2383 209.689 89.8678 208.039 89.8678 205.998ZM125.759 206.427V213.07H122.386V211.591C121.288 212.715 119.862 213.4 118.334 213.4C114.292 213.4 111.021 210.082 111.021 205.981C111.021 201.881 114.298 198.563 118.334 198.563C122.369 198.563 125.759 201.796 125.759 206.427ZM121.969 206C121.969 203.965 120.339 202.309 118.334 202.309C116.328 202.309 114.698 203.959 114.698 206C114.698 208.041 116.328 209.69 118.334 209.69C120.339 209.69 121.969 208.041 121.969 206ZM158.833 213.07V206.427C158.833 201.796 155.442 198.563 151.407 198.563C147.372 198.563 144.095 201.881 144.095 205.981C144.095 210.082 147.366 213.4 151.407 213.4C152.935 213.4 154.362 212.715 155.46 211.591V213.07H158.833ZM151.407 202.309C153.413 202.309 155.042 203.965 155.042 206C155.042 208.041 153.413 209.69 151.407 209.69C149.402 209.69 147.772 208.041 147.772 206C147.772 203.959 149.402 202.309 151.407 202.309ZM191.693 206.427V213.07H188.321V211.591C187.223 212.715 185.796 213.4 184.268 213.4C180.227 213.4 176.956 210.082 176.956 205.981C176.956 201.881 180.233 198.563 184.268 198.563C188.303 198.563 191.693 201.796 191.693 206.427ZM187.903 206C187.903 203.965 186.273 202.309 184.268 202.309C182.262 202.309 180.633 203.959 180.633 206C180.633 208.041 182.262 209.69 184.268 209.69C186.273 209.69 187.903 208.041 187.903 206ZM136.283 213.188C135.652 213.188 135.04 213.097 134.446 212.913C133.852 212.711 133.311 212.455 132.825 212.143C132.415 211.879 132.062 211.583 131.767 211.254L131.691 212.858H128.044V192.548H131.907V200.002C132.189 199.667 132.531 199.365 132.933 199.098C133.401 198.768 133.915 198.511 134.473 198.327C135.031 198.144 135.598 198.052 136.175 198.052C137.435 198.052 138.551 198.382 139.524 199.043C140.496 199.685 141.262 200.584 141.82 201.74C142.396 202.877 142.684 204.171 142.684 205.62C142.684 207.088 142.405 208.391 141.847 209.528C141.289 210.666 140.523 211.565 139.551 212.225C138.597 212.867 137.507 213.188 136.283 213.188ZM135.364 209.858C136.084 209.858 136.706 209.684 137.228 209.336C137.768 208.969 138.191 208.473 138.497 207.849C138.804 207.207 138.957 206.464 138.957 205.62C138.957 204.795 138.804 204.07 138.497 203.446C138.209 202.804 137.795 202.309 137.255 201.96C136.715 201.593 136.084 201.41 135.364 201.41C134.662 201.41 134.041 201.593 133.5 201.96C132.96 202.309 132.537 202.804 132.231 203.446C131.925 204.07 131.772 204.795 131.772 205.62C131.772 206.464 131.925 207.207 132.231 207.849C132.537 208.473 132.96 208.969 133.5 209.336C134.041 209.684 134.662 209.858 135.364 209.858ZM109.308 204.995V213.393H105.561V205.313C105.561 203.636 104.484 202.367 102.545 202.367C100.779 202.367 99.522 203.636 99.522 205.349V213.399H95.7812V199.086H99.3724V200.769C100.276 199.361 102.126 198.922 103.436 198.922C107.74 198.922 109.308 201.782 109.308 204.995Z" fill="url(#paint4_linear_4409_50764)"/>
</g>
</g>
</g>
<path d="M59.1813 308.638C61.6094 308.647 63.2969 310.879 63.3063 314.357C63.2969 317.844 61.6094 320.075 59.1813 320.075C56.7625 320.075 55.075 317.844 55.0938 314.357C55.075 310.879 56.7625 308.647 59.1813 308.638ZM56.2 314.357C56.2 317.122 57.4281 319.025 59.1813 319.025C60.9625 319.025 62.1719 317.122 62.1813 314.357C62.1719 311.591 60.9625 309.697 59.1813 309.688C57.4281 309.697 56.2 311.591 56.2 314.357ZM66.325 323.863V307.325H67.5063V311.582H70.3V312.613H67.5063V316.532H70.3V317.544H67.5063V323.863H66.325ZM84.7 311.469V312.463H79.4875V314.45H86.4813V315.463H71.35V314.45H78.325V312.463H73.4688V307.607H74.6125V311.469H84.7ZM73.3 317.919V316.963H84.5125V320.582H74.5188V322.663H85.1125V323.619H73.3375V319.7H83.35V317.919H73.3ZM93.3813 312.594C93.3719 315.275 95.4906 318.2 97.7688 319.307L97.075 320.244C95.2375 319.316 93.5594 317.291 92.8188 314.985C92.0594 317.469 90.2688 319.691 88.45 320.657L87.7188 319.719C89.9688 318.594 92.2281 315.435 92.2375 312.594V310.063H88.3V309.05H97.2438V310.063H93.3813V312.594ZM99.5125 323.863V307.325H100.694V314.132H103.544V315.144H100.694V323.863H99.5125ZM106.188 317.45C105.634 317.46 105.175 317 105.175 316.457C105.175 315.904 105.634 315.454 106.188 315.444C106.731 315.454 107.181 315.904 107.181 316.457C107.181 317 106.731 317.46 106.188 317.45ZM113.669 308.638C116.097 308.647 117.784 310.879 117.794 314.357C117.784 317.844 116.097 320.075 113.669 320.075C111.25 320.075 109.563 317.844 109.581 314.357C109.563 310.879 111.25 308.647 113.669 308.638ZM110.688 314.357C110.688 317.122 111.916 319.025 113.669 319.025C115.45 319.025 116.659 317.122 116.669 314.357C116.659 311.591 115.45 309.697 113.669 309.688C111.916 309.697 110.688 311.591 110.688 314.357ZM120.813 323.863V307.325H121.994V311.582H124.788V312.613H121.994V316.532H124.788V317.544H121.994V323.863H120.813ZM141.381 314.038V315.05H138.588V323.863H137.406V307.325H138.588V314.038H141.381ZM126.588 319.607V308.957H127.75V318.594H127.863C130.356 318.604 132.859 318.416 135.663 317.825L135.813 318.857C132.934 319.429 130.413 319.607 127.863 319.607H126.588ZM155.181 307.325V313.944H158.031V314.994H155.181V323.863H154V307.325H155.181ZM143.181 319.832V308.75H144.344V313.232H149.65V308.75H150.812V319.832H143.181ZM144.344 318.838H149.65V314.207H144.344V318.838ZM171.775 307.325V314H174.625V314.994H171.775V323.882H170.594V307.325H171.775ZM159.794 319.7V308.957H167.5V309.95H160.975V318.669H161.069C164.228 318.679 166.356 318.557 168.869 318.088L169.037 319.119C166.422 319.597 164.284 319.691 161.069 319.7H159.794ZM181.056 308.563C183.653 308.563 185.472 310.11 185.481 312.388C185.472 314.666 183.653 316.213 181.056 316.213C178.459 316.213 176.631 314.666 176.631 312.388C176.631 310.11 178.459 308.563 181.056 308.563ZM175.731 319.1C178.825 319.119 183.072 319.1 186.775 318.538L186.869 319.438C183.044 320.141 178.928 320.15 175.919 320.15L175.731 319.1ZM177.794 312.388C177.784 314.01 179.153 315.172 181.056 315.163C182.95 315.172 184.319 314.01 184.319 312.388C184.319 310.766 182.95 309.613 181.056 309.613C179.153 309.613 177.784 310.766 177.794 312.388ZM187.919 323.882V307.325H189.1V323.882H187.919ZM210.325 307.325V323.863H209.144V307.325H210.325ZM196.956 319.532C198.428 319.522 200.097 319.513 201.831 319.457V317.516C199.787 317.338 198.466 316.204 198.475 314.507C198.466 312.641 200.031 311.441 202.394 311.45C204.766 311.441 206.35 312.641 206.35 314.507C206.35 316.185 205.047 317.31 203.031 317.516V319.41C204.7 319.335 206.397 319.213 207.981 319.007L208.094 319.925C204.362 320.507 200.256 320.563 197.162 320.563L196.956 319.532ZM197.312 310.4V309.425H201.831V307.307H203.012V309.425H207.494V310.4H197.312ZM199.581 314.507C199.562 315.744 200.734 316.588 202.394 316.569C204.072 316.588 205.225 315.744 205.225 314.507C205.225 313.26 204.072 312.388 202.394 312.388C200.734 312.388 199.562 313.26 199.581 314.507ZM226.956 307.325V319.925H225.775V318.069H222.287V317.169H225.775V307.325H226.956ZM213.362 315.088C216.447 315.088 220.609 315.06 224.162 314.6L224.256 315.482C222.728 315.725 221.116 315.875 219.531 315.969V319.288H218.35V316.025C216.616 316.091 214.956 316.1 213.531 316.1L213.362 315.088ZM214.712 310.888C214.722 309.163 216.362 308.038 218.8 308.038C221.228 308.038 222.869 309.163 222.887 310.888C222.869 312.66 221.228 313.747 218.8 313.738C216.362 313.747 214.722 312.66 214.712 310.888ZM215.819 323.469V318.669H217V322.475H227.387V323.469H215.819ZM215.856 310.888C215.837 312.06 217.047 312.838 218.8 312.838C220.516 312.838 221.734 312.06 221.744 310.888C221.734 309.744 220.516 308.938 218.8 308.957C217.047 308.938 215.837 309.744 215.856 310.888ZM243.625 307.325V323.882H242.444V307.325H243.625ZM230.706 314.357C230.706 310.879 232.441 308.647 234.887 308.638C237.316 308.647 239.069 310.879 239.069 314.357C239.069 317.844 237.316 320.075 234.887 320.075C232.441 320.075 230.706 317.844 230.706 314.357ZM231.85 314.357C231.85 317.122 233.097 319.025 234.887 319.025C236.678 319.025 237.916 317.122 237.906 314.357C237.916 311.591 236.678 309.697 234.887 309.688C233.097 309.697 231.85 311.591 231.85 314.357ZM261.137 314.6V315.594H257.387V319.025C259.084 318.95 260.8 318.838 262.412 318.65L262.506 319.532C258.822 320.085 254.734 320.16 251.556 320.169L251.369 319.138C252.85 319.138 254.509 319.119 256.206 319.063V315.594H252.681V308.919H261.062V309.913H253.844V314.6H261.137ZM263.556 323.882V307.325H264.737V323.882H263.556ZM281.462 307.325V319.475H280.281V307.325H281.462ZM268.112 316.1C270.522 315.135 272.378 312.679 272.387 309.932V308.244H273.569V309.932C273.559 312.566 275.453 314.872 277.844 315.782L277.206 316.738C275.294 315.96 273.709 314.385 272.987 312.36C272.284 314.507 270.7 316.222 268.787 317.038L268.112 316.1ZM270.906 323.469V318.369H272.087V322.475H282.006V323.469H270.906ZM302.725 307.325V315.875H301.544V312.444H297.644V311.469H301.544V307.325H302.725ZM289.375 315.219C293.425 314.197 296.003 312.079 296.284 309.2H290.219V308.188H297.531C297.541 312.238 294.531 314.985 289.806 316.194L289.375 315.219ZM292.094 317.6V316.625H302.725V320.488H293.312V322.719H303.362V323.694H292.15V319.55H301.544V317.6H292.094ZM149.228 333.063V338.669H151.403V340.638H149.228V346.375H146.828V333.063H149.228ZM135.391 342.869C136.619 342.869 138.044 342.86 139.534 342.813V341.829C137.678 341.566 136.525 340.647 136.534 339.307C136.525 337.619 138.184 336.635 140.716 336.644C143.228 336.635 144.888 337.619 144.897 339.307C144.888 340.638 143.744 341.557 141.916 341.829V342.7C143.313 342.616 144.719 342.485 146.041 342.288L146.209 343.938C142.619 344.632 138.578 344.679 135.634 344.707L135.391 342.869ZM135.841 336.157V334.45H139.534V333.007H141.916V334.45H145.609V336.157H135.841ZM137.791 349.825V345.494H140.191V347.913H149.809V349.825H137.791ZM138.822 339.307C138.813 339.944 139.497 340.31 140.716 340.3C141.916 340.31 142.6 339.944 142.609 339.307C142.6 338.585 141.916 338.238 140.716 338.238C139.497 338.238 138.813 338.585 138.822 339.307ZM156.934 333.982C158.294 333.972 159.484 334.479 160.3 335.313H164.172V333.063H166.553V343.057H164.172V341.013H160.281C159.466 341.838 158.284 342.335 156.934 342.325C154.347 342.335 152.378 340.572 152.397 338.163C152.378 335.725 154.347 333.972 156.934 333.982ZM154.666 338.163C154.656 339.475 155.603 340.31 156.934 340.3C158.219 340.31 159.156 339.475 159.166 338.163C159.156 336.804 158.219 336.016 156.934 336.025C155.603 336.016 154.656 336.804 154.666 338.163ZM154.853 346.769C154.853 344.65 157.113 343.404 160.722 343.413C164.331 343.404 166.6 344.65 166.609 346.769C166.6 348.888 164.331 350.135 160.722 350.125C157.113 350.135 154.853 348.888 154.853 346.769ZM157.197 346.769C157.197 347.763 158.463 348.269 160.722 348.269C163.028 348.269 164.256 347.763 164.266 346.769C164.256 345.747 163.028 345.241 160.722 345.232C158.463 345.241 157.197 345.747 157.197 346.769ZM161.322 337.207C161.397 337.507 161.434 337.835 161.434 338.163C161.434 338.491 161.397 338.8 161.331 339.1H164.172V337.207H161.322ZM182.303 333.063V337.169H184.609V339.157H182.303V343.057H179.903V333.063H182.303ZM168.766 336.438V334.563H172.647V332.95H175.028V334.563H178.891V336.438H168.766ZM169.591 339.944C169.591 338.125 171.316 336.925 173.828 336.925C176.313 336.925 178.028 338.125 178.028 339.944C178.028 341.763 176.313 342.963 173.828 342.963C171.316 342.963 169.591 341.763 169.591 339.944ZM171.128 349.938V343.713H173.509V345.007H179.903V343.713H182.303V349.938H171.128ZM171.934 339.944C171.925 340.769 172.684 341.21 173.828 341.219C174.981 341.21 175.759 340.769 175.759 339.944C175.759 339.147 174.981 338.669 173.828 338.688C172.684 338.669 171.925 339.147 171.934 339.944ZM173.509 348.063H179.903V346.844H173.509V348.063ZM199.703 333.063V350.125H197.322V333.063H199.703ZM186.278 345.907V334.694H188.641V343.872C190.947 343.835 193.422 343.619 195.934 343.132L196.234 345.1C193.244 345.729 190.412 345.916 187.778 345.907H186.278ZM215.416 333.063V339.4H217.928V341.35H215.416V350.163H213.016V333.063H215.416ZM202.628 346.019V334.638H210.634V336.569H205.009V344.05C207.484 344.032 209.528 343.9 211.797 343.507L212.059 345.513C209.406 345.963 207.081 346.029 204.072 346.019H202.628ZM222.428 334.825L222.184 344.332H219.784L219.541 334.825H222.428ZM219.428 346.994C219.409 346.132 220.122 345.429 221.003 345.438C221.837 345.429 222.559 346.132 222.559 346.994C222.559 347.866 221.837 348.569 221.003 348.569C220.122 348.569 219.409 347.866 219.428 346.994Z" fill="#1A1A1A"/>
</g>
<defs>
<filter id="filter0_d_4409_50764" x="164.542" y="76.1865" width="138.339" height="138.338" filterUnits="userSpaceOnUse" color-interpolation-filters="sRGB">
<feFlood flood-opacity="0" result="BackgroundImageFix"/>
<feColorMatrix in="SourceAlpha" type="matrix" values="0 0 0 0 0 0 0 0 0 0 0 0 0 0 0 0 0 0 127 0" result="hardAlpha"/>
<feMorphology radius="0.514708" operator="dilate" in="SourceAlpha" result="effect1_dropShadow_4409_50764"/>
<feOffset dy="0.343139"/>
<feGaussianBlur stdDeviation="1.54413"/>
<feComposite in2="hardAlpha" operator="out"/>
<feColorMatrix type="matrix" values="0 0 0 0 0 0 0 0 0 0 0 0 0 0 0 0 0 0 0.1 0"/>
<feBlend mode="normal" in2="BackgroundImageFix" result="effect1_dropShadow_4409_50764"/>
<feBlend mode="normal" in="SourceGraphic" in2="effect1_dropShadow_4409_50764" result="shape"/>
</filter>
<filter id="filter1_d_4409_50764" x="186.181" y="129.42" width="93.8167" height="30.9827" filterUnits="userSpaceOnUse" color-interpolation-filters="sRGB">
<feFlood flood-opacity="0" result="BackgroundImageFix"/>
<feColorMatrix in="SourceAlpha" type="matrix" values="0 0 0 0 0 0 0 0 0 0 0 0 0 0 0 0 0 0 127 0" result="hardAlpha"/>
<feMorphology radius="0.41778" operator="dilate" in="SourceAlpha" result="effect1_dropShadow_4409_50764"/>
<feOffset dy="0.27852"/>
<feGaussianBlur stdDeviation="1.25334"/>
<feComposite in2="hardAlpha" operator="out"/>
<feColorMatrix type="matrix" values="0 0 0 0 0 0 0 0 0 0 0 0 0 0 0 0 0 0 0.1 0"/>
<feBlend mode="normal" in2="BackgroundImageFix" result="effect1_dropShadow_4409_50764"/>
<feBlend mode="normal" in="SourceGraphic" in2="effect1_dropShadow_4409_50764" result="shape"/>
</filter>
<filter id="filter2_b_4409_50764" x="40.4675" y="117.157" width="175.215" height="175.215" filterUnits="userSpaceOnUse" color-interpolation-filters="sRGB">
<feFlood flood-opacity="0" result="BackgroundImageFix"/>
<feGaussianBlur in="BackgroundImageFix" stdDeviation="3.35368"/>
<feComposite in2="SourceAlpha" operator="in" result="effect1_backgroundBlur_4409_50764"/>
<feBlend mode="normal" in="SourceGraphic" in2="effect1_backgroundBlur_4409_50764" result="shape"/>
</filter>
<filter id="filter3_d_4409_50764" x="32.5208" y="174.698" width="178.901" height="69.3374" filterUnits="userSpaceOnUse" color-interpolation-filters="sRGB">
<feFlood flood-opacity="0" result="BackgroundImageFix"/>
<feColorMatrix in="SourceAlpha" type="matrix" values="0 0 0 0 0 0 0 0 0 0 0 0 0 0 0 0 0 0 127 0" result="hardAlpha"/>
<feMorphology radius="2.81832" operator="dilate" in="SourceAlpha" result="effect1_dropShadow_4409_50764"/>
<feOffset dy="1.87888"/>
<feGaussianBlur stdDeviation="8.45496"/>
<feComposite in2="hardAlpha" operator="out"/>
<feColorMatrix type="matrix" values="0 0 0 0 0 0 0 0 0 0 0 0 0 0 0 0 0 0 0.1 0"/>
<feBlend mode="normal" in2="BackgroundImageFix" result="effect1_dropShadow_4409_50764"/>
<feBlend mode="normal" in="SourceGraphic" in2="effect1_dropShadow_4409_50764" result="shape"/>
</filter>
<filter id="filter4_d_4409_50764" x="59.8822" y="189.888" width="134.751" height="33.4953" filterUnits="userSpaceOnUse" color-interpolation-filters="sRGB">
<feFlood flood-opacity="0" result="BackgroundImageFix"/>
<feColorMatrix in="SourceAlpha" type="matrix" values="0 0 0 0 0 0 0 0 0 0 0 0 0 0 0 0 0 0 127 0" result="hardAlpha"/>
<feMorphology radius="0.420006" operator="dilate" in="SourceAlpha" result="effect1_dropShadow_4409_50764"/>
<feOffset dy="0.280004"/>
<feGaussianBlur stdDeviation="1.26002"/>
<feComposite in2="hardAlpha" operator="out"/>
<feColorMatrix type="matrix" values="0 0 0 0 0 0 0 0 0 0 0 0 0 0 0 0 0 0 0.1 0"/>
<feBlend mode="normal" in2="BackgroundImageFix" result="effect1_dropShadow_4409_50764"/>
<feBlend mode="normal" in="SourceGraphic" in2="effect1_dropShadow_4409_50764" result="shape"/>
</filter>
<linearGradient id="paint0_linear_4409_50764" x1="57.3084" y1="0" x2="57.3084" y2="114.617" gradientUnits="userSpaceOnUse">
<stop stop-color="#FF5869"/>
<stop offset="1" stop-color="#FE1C75"/>
</linearGradient>
<linearGradient id="paint1_linear_4409_50764" x1="233.089" y1="132.066" x2="233.089" y2="157.2" gradientUnits="userSpaceOnUse">
<stop offset="0.5" stop-color="white"/>
<stop offset="1" stop-color="#E9E9E9"/>
</linearGradient>
<linearGradient id="paint2_linear_4409_50764" x1="36.0098" y1="-88.2052" x2="157.392" y2="-62.8027" gradientUnits="userSpaceOnUse">
<stop stop-color="#3AC8F4"/>
<stop offset="1" stop-color="#5E9BF3"/>
</linearGradient>
<linearGradient id="paint3_linear_4409_50764" x1="12.3872" y1="7.4364" x2="113.141" y2="31.4902" gradientUnits="userSpaceOnUse">
<stop stop-color="white"/>
<stop offset="1" stop-color="white" stop-opacity="0"/>
</linearGradient>
<linearGradient id="paint4_linear_4409_50764" x1="127.258" y1="192.548" x2="127.258" y2="220.163" gradientUnits="userSpaceOnUse">
<stop offset="0.5" stop-color="white"/>
<stop offset="1" stop-color="#E9E9E9"/>
</linearGradient>
<clipPath id="clip0_4409_50764">
<rect width="360" height="391.2" fill="white"/>
</clipPath>
</defs>
</svg>
